<?xml version="1.0" encoding="utf-8"?>
<!-- Generator: Adobe Illustrator 13.0.0, SVG Export Plug-In . SVG Version: 6.00 Build 14948)  -->
<!DOCTYPE svg PUBLIC "-//W3C//DTD SVG 1.1//EN" "http://www.w3.org/Graphics/SVG/1.1/DTD/svg11.dtd">
<svg version="1.1" id="Layer_1" xmlns="http://www.w3.org/2000/svg" xmlns:xlink="http://www.w3.org/1999/xlink" x="0px" y="0px"
	 width="224.15px" height="312.702px" viewBox="0 0 224.15 312.702" enable-background="new 0 0 224.15 312.702"
	 xml:space="preserve">
<g>
	
		<polygon fill-rule="evenodd" clip-rule="evenodd" fill="#2E3192" stroke="#464443" stroke-width="1.2501" stroke-miterlimit="2.6131" points="
		113.421,311.609 92.931,311.982 92.431,305.378 92.018,302.429 91.449,299.706 90.738,297.208 89.901,294.934 88.954,292.882 
		87.913,291.049 86.793,289.432 85.611,288.026 84.379,286.828 83.113,285.83 81.825,285.024 80.524,284.404 79.219,283.963 
		77.917,283.691 76.618,283.587 75.328,283.646 74.045,283.868 72.773,284.257 71.515,284.82 70.273,285.564 69.059,286.499 
		67.882,287.634 66.754,288.979 65.69,290.538 64.706,292.321 63.818,294.332 63.043,296.574 62.397,299.051 61.898,301.762 
		61.56,304.711 61.226,311.357 39.456,311.357 0.733,182.485 3.998,180.358 4.988,179.686 5.947,179.006 6.875,178.319 
		7.772,177.627 8.638,176.929 9.474,176.225 10.28,175.516 11.055,174.803 11.8,174.085 12.515,173.363 13.2,172.638 
		13.856,171.908 14.482,171.177 15.08,170.442 15.648,169.705 16.188,168.966 16.699,168.226 17.183,167.482 17.638,166.739 
		18.065,165.994 18.466,165.249 18.839,164.503 19.186,163.757 19.505,163.011 19.799,162.265 20.066,161.519 20.308,160.772 
		20.523,160.028 20.714,159.283 20.88,158.539 21.371,155.948 21.351,153.308 21.313,152.46 21.244,151.615 21.143,150.771 
		21.01,149.928 20.846,149.086 20.65,148.248 20.423,147.41 20.164,146.575 19.873,145.742 19.549,144.911 19.194,144.083 
		18.806,143.259 18.386,142.437 17.933,141.619 17.449,140.806 16.931,139.997 16.379,139.192 15.795,138.394 15.179,137.601 
		14.529,136.814 13.846,136.033 13.129,135.261 12.381,134.495 11.598,133.739 10.782,132.991 9.933,132.252 9.051,131.523 
		8.135,130.804 7.187,130.097 6.205,129.4 2.98,127.224 42.31,0.641 97.128,1.272 97.633,6.054 97.833,7.615 98.058,9.116 
		98.309,10.557 98.583,11.939 98.881,13.262 99.2,14.524 99.54,15.729 99.899,16.876 100.275,17.965 100.668,18.996 101.077,19.97 
		101.5,20.887 101.934,21.749 102.378,22.554 102.833,23.306 103.295,24.003 103.762,24.647 104.234,25.24 104.709,25.782 
		105.186,26.274 105.662,26.718 106.137,27.116 106.61,27.47 107.081,27.781 107.547,28.052 108.01,28.284 108.47,28.48 
		108.927,28.642 109.381,28.77 109.834,28.867 111.696,29.139 113.63,28.533 114.145,28.337 114.662,28.104 115.188,27.832 
		115.713,27.52 116.242,27.168 116.773,26.776 117.303,26.343 117.828,25.868 118.352,25.352 118.869,24.794 119.381,24.195 
		119.883,23.555 120.375,22.874 120.855,22.151 121.322,21.389 121.775,20.586 122.211,19.744 122.631,18.862 123.031,17.942 
		123.412,16.983 123.771,15.987 124.109,14.953 124.422,13.882 124.711,12.774 124.973,11.631 125.207,10.452 125.412,9.238 
		125.588,7.99 125.732,6.707 125.846,5.391 126.125,0.632 181.047,1.265 223.387,127.481 219.564,129.509 218.475,130.128 
		217.428,130.767 216.42,131.424 215.453,132.099 214.527,132.791 213.641,133.498 212.793,134.22 211.984,134.956 211.213,135.706 
		210.479,136.469 209.781,137.244 209.121,138.031 208.498,138.828 207.908,139.634 207.355,140.451 206.838,141.276 
		206.354,142.11 205.904,142.951 205.488,143.798 205.105,144.652 204.754,145.512 204.438,146.376 204.152,147.246 
		203.898,148.119 203.678,148.995 203.488,149.873 203.33,150.753 203.201,151.635 203.104,152.518 203.039,153.399 
		202.928,156.134 203.297,158.843 203.445,159.703 203.621,160.558 203.826,161.405 204.059,162.246 204.32,163.079 
		204.609,163.902 204.928,164.718 205.271,165.521 205.643,166.315 206.043,167.097 206.467,167.866 206.92,168.622 
		207.398,169.364 207.904,170.092 208.436,170.805 208.992,171.502 209.574,172.182 210.182,172.845 210.816,173.49 
		211.475,174.116 212.158,174.723 212.865,175.31 213.6,175.875 214.357,176.42 215.141,176.942 215.947,177.442 216.779,177.918 
		217.635,178.37 218.516,178.797 219.42,179.198 223.389,180.797 184.545,311.249 165.283,312.054 164.373,305.355 163.76,302.187 
		163.008,299.265 162.137,296.59 161.154,294.16 160.08,291.976 158.926,290.031 157.709,288.325 156.443,286.853 155.145,285.606 
		153.824,284.58 152.496,283.763 151.168,283.145 149.846,282.715 148.533,282.465 147.227,282.387 145.926,282.478 
		144.627,282.739 143.326,283.177 142.031,283.799 140.744,284.614 139.473,285.633 138.23,286.862 137.031,288.31 135.887,289.979 
		134.816,291.876 133.832,294.001 132.949,296.356 132.182,298.942 131.547,301.76 131.055,304.808 130.395,311.3 113.421,311.609 	
		"/>
	
		<path fill-rule="evenodd" clip-rule="evenodd" fill="#ED1C24" stroke="#000000" stroke-width="1.2501" stroke-miterlimit="2.6131" d="
		M109.89,308.141l-13.689,0.25c-1.692-37.317-37.583-38.072-38.333-0.565H42.083L4.877,184.001
		c11.665-7.445,18.051-16.489,19.625-25.604h85.388V308.141L109.89,308.141z"/>
	
		<path fill-rule="evenodd" clip-rule="evenodd" fill="#C6262F" stroke="#000000" stroke-width="1.2501" stroke-miterlimit="2.6131" d="
		M199.672,158.397c1.262,10.52,8.178,20.164,19.414,24.473l-37.207,124.955l-13.529,0.565c-4.322-39.769-38.334-38.825-41.152-0.565
		l-13.125,0.239V158.397H199.672L199.672,158.397z"/>
	
		<path fill-rule="evenodd" clip-rule="evenodd" fill="#ED1C24" stroke="#000000" stroke-width="1.2501" stroke-miterlimit="2.6131" d="
		M114.072,32.096c7.652-2.14,14.674-12.338,15.381-27.894l49.045,0.565l40.588,120.997c-13.27,6.786-19.361,17.752-19.615,28.432
		h-85.398V32.096L114.072,32.096z"/>
	
		<path fill-rule="evenodd" clip-rule="evenodd" fill="#C6262F" stroke="#000000" stroke-width="1.2501" stroke-miterlimit="2.6131" d="
		M44.901,4.202l49.044,0.565c1.754,18.394,8.67,26.853,15.944,27.677v121.752h-85c0.121-10.466-6.032-20.717-17.758-28.432
		L44.901,4.202L44.901,4.202z"/>
	<path fill-rule="evenodd" clip-rule="evenodd" d="M190.018,238.183l0.227-0.136l0.334-0.219l0.32-0.231l0.311-0.244l0.295-0.255
		l0.283-0.266l0.271-0.276l0.258-0.287l0.246-0.297l0.23-0.306l0.219-0.315l0.205-0.323l0.191-0.332l0.18-0.339l0.164-0.347
		l0.152-0.354l0.137-0.36l0.125-0.365l0.109-0.372l0.098-0.377l0.082-0.382l0.068-0.386l0.057-0.391l0.041-0.394l0.027-0.398
		l0.012-0.4v-0.402l-0.016-0.405l-0.09-1.252l-1.072,0.354l-0.27,0.103l-0.271,0.117l-0.268,0.13l-0.268,0.145l-0.266,0.158
		l-0.262,0.172l-0.26,0.187l-0.254,0.201l-0.252,0.216l-0.244,0.23l-0.24,0.245l-0.232,0.261l-0.227,0.274l-0.221,0.29l-0.211,0.305
		l-0.203,0.32l-0.193,0.336l-0.184,0.351l-0.174,0.366l-0.164,0.383l-0.152,0.397l-0.141,0.413l-0.127,0.429l-0.117,0.445
		l-0.102,0.461l-0.09,0.477l-0.074,0.493l-0.059,0.51l-0.047,0.525l-0.027,0.543l-0.037,1.534l-0.191,0.104l-0.152,0.087
		l0.047-0.175l0.055-0.224l0.049-0.225l0.045-0.224l0.041-0.225l0.035-0.223l0.033-0.224l0.027-0.222l0.023-0.221l0.02-0.22
		l0.014-0.219l0.012-0.218l0.008-0.216l0.004-0.214l0.002-0.212l-0.004-0.21l-0.006-0.207l-0.01-0.205l-0.014-0.201l-0.016-0.2
		l-0.02-0.196l-0.021-0.193l-0.111-0.863l-1.023,0.158l-0.359,0.082l-0.346,0.106l-0.332,0.131l-0.32,0.154l-0.305,0.177
		l-0.289,0.198l-0.275,0.219l-0.26,0.238l-0.244,0.257l-0.23,0.274l-0.213,0.29l-0.201,0.306l-0.186,0.321l-0.172,0.334
		l-0.158,0.349l-0.146,0.361l-0.133,0.374l-0.121,0.386l-0.107,0.397l-0.098,0.409l-0.086,0.42l-0.076,0.43l-0.061,0.421
		l-0.016-0.131l-0.115-0.879l-1.059,0.163l-0.391,0.09l-0.379,0.116l-0.363,0.143l-0.35,0.169l-0.334,0.193l-0.316,0.217
		l-0.301,0.239l-0.283,0.262l-0.268,0.281l-0.252,0.3l-0.234,0.318l-0.221,0.335l-0.203,0.353l-0.189,0.368l-0.174,0.383
		l-0.16,0.397l-0.146,0.412l-0.135,0.425l-0.018,0.069l-0.004-0.118l-0.008-0.304l-0.033-1.688l-1.389,1.147l-0.32,0.278
		l-0.313,0.285l-0.305,0.292l-0.299,0.299l-0.291,0.307l-0.285,0.312l-0.277,0.318l-0.271,0.324l-0.266,0.33l-0.26,0.336
		l-0.254,0.342l-0.246,0.347l-0.242,0.351l-0.236,0.357l-0.232,0.361l-0.225,0.366l-0.223,0.371l-0.215,0.375l-0.213,0.379
		l-0.207,0.384l-0.203,0.387l-0.201,0.391l-0.195,0.395l-0.191,0.397l-0.188,0.401l-0.186,0.404l-0.182,0.406l-0.18,0.41
		l-0.176,0.412l-0.008,0.021l0.021-0.165l0.029-0.308l0.02-0.309l0.012-0.31l0.006-0.31l-0.004-0.311l-0.008-0.31l-0.014-0.311
		l-0.018-0.311l-0.021-0.31l-0.023-0.311l-0.027-0.309l-0.029-0.309l-0.029-0.308l-0.029-0.306l-0.029-0.305l-0.027-0.303
		l-0.145-1.683l-1.311,1.237l-0.301,0.299l-0.293,0.305l-0.285,0.313l-0.277,0.318l-0.271,0.323l-0.264,0.331l-0.256,0.336
		l-0.25,0.341l-0.242,0.347l-0.236,0.353l-0.23,0.357l-0.225,0.362l-0.217,0.367l-0.213,0.371l-0.207,0.376l-0.201,0.381
		l-0.197,0.384l-0.191,0.389l-0.186,0.393l-0.182,0.396l-0.178,0.399l-0.174,0.403l-0.168,0.406l-0.166,0.409l-0.16,0.413
		l-0.158,0.415l-0.154,0.419l-0.152,0.42l-0.148,0.424l-0.145,0.425l-0.379,1.131l1.318,0.289l0.588,0.118l0.064,0.011l-0.139-0.003
		h-0.475l-0.469,0.01l-0.461,0.018l-0.453,0.027l-0.445,0.037l-0.432,0.046l-0.281,0.036l0.145-0.234l0.156-0.29l0.143-0.295
		l0.129-0.3l0.115-0.304l0.104-0.308l0.09-0.312l0.078-0.314l0.07-0.316l0.059-0.318l0.051-0.32l0.041-0.321l0.033-0.323
		l0.027-0.323l0.02-0.324l0.016-0.323l0.008-0.323l0.006-0.324v-0.322l-0.002-0.321l-0.006-0.318l-0.008-0.318l-0.01-0.315
		l-0.01-0.313l-0.01-0.31l-0.049-1.44l-1.588,0.95l-0.6,0.373l-0.578,0.376l-0.559,0.379l-0.541,0.381l-0.52,0.384l-0.5,0.387
		l-0.482,0.389l-0.461,0.392l-0.443,0.395l-0.426,0.398l-0.406,0.4l-0.389,0.403l-0.369,0.406l-0.352,0.41l-0.332,0.412
		l-0.316,0.416l-0.297,0.418l-0.281,0.422l-0.262,0.425l-0.244,0.429l-0.229,0.431l-0.209,0.434l-0.193,0.437l-0.176,0.44
		l-0.158,0.442l-0.143,0.445l-0.125,0.447l-0.109,0.451l-0.092,0.452l-0.076,0.455l-0.137,1.033l1.186,0.305l0.652,0.139
		l0.676,0.117l0.695,0.097l0.715,0.078l0.732,0.06l0.746,0.041l0.76,0.024l0.77,0.008l0.777-0.008l0.783-0.022l0.787-0.037
		l0.789-0.051l0.787-0.063l0.785-0.077l0.777-0.088l0.771-0.099l0.762-0.11l0.748-0.119l0.736-0.129l0.717-0.138l0.699-0.146
		l0.678-0.153l0.654-0.16l0.627-0.167l0.602-0.173l0.57-0.178l0.541-0.184l0.506-0.188l0.469-0.193l0.434-0.197l1.41-0.727
		l-1.311-0.84l-0.367-0.21l-0.385-0.197l-0.398-0.183l-0.412-0.17l-0.426-0.158l-0.436-0.146l-0.447-0.135l-0.457-0.122
		l-0.463-0.112l-0.371-0.079l0.492,0.003l0.498-0.01l0.488-0.021l0.482-0.033l0.473-0.044l0.465-0.056l0.457-0.066l0.449-0.077
		l0.439-0.088l0.434-0.099l0.428-0.109l0.418-0.119l0.412-0.13l0.404-0.139l0.396-0.148l0.389-0.158l0.383-0.167l0.377-0.176
		l0.369-0.185l0.363-0.193l0.355-0.201l1.301-0.78l-1.283-0.767l-0.328-0.186l-0.324-0.175l-0.322-0.165l-0.32-0.153l-0.318-0.143
		l-0.318-0.131l-0.314-0.121l-0.314-0.109l-0.223-0.071l0.393,0.056l0.52,0.062l0.512,0.049l0.506,0.036l0.496,0.023l0.49,0.011
		l0.482-0.001l0.475-0.013l0.467-0.024l0.461-0.036l0.453-0.048l0.445-0.059l0.439-0.07l0.434-0.08l0.426-0.092l0.418-0.102
		l0.412-0.112l0.406-0.121l0.4-0.132l0.393-0.142l0.387-0.151l0.381-0.159l0.375-0.169l0.367-0.178l1.352-0.692l-1.23-0.85
		l-0.314-0.207l-0.314-0.196l-0.311-0.185l-0.309-0.175l-0.309-0.163l-0.309-0.151l-0.307-0.142l-0.307-0.131l-0.305-0.119
		l-0.305-0.109l-0.307-0.098l-0.305-0.088l-0.305-0.077l-0.01-0.002l0.529-0.021l0.566-0.036l0.557-0.051l0.547-0.064l0.533-0.078
		l0.52-0.093l0.51-0.107l0.494-0.122l0.482-0.137l0.469-0.152l0.455-0.168l0.439-0.185l0.424-0.199l0.41-0.216l0.393-0.232
		l0.377-0.249l0.359-0.267l0.34-0.282l0.322-0.301l0.305-0.318l0.281-0.335l0.262-0.352l0.24-0.369l0.217-0.386l0.195-0.402
		l0.17-0.417l0.146-0.434l0.33-1.207l-1.018-0.083l-0.238-0.012l-0.248-0.005l-0.26,0.001l-0.27,0.007l-0.268,0.012l0.24-0.063
		l0.408-0.128l0.395-0.143l0.379-0.157l0.365-0.174l0.352-0.188l0.336-0.203l0.32-0.218l0.307-0.231l0.291-0.246l0.277-0.26
		l0.26-0.273l0.246-0.286l0.23-0.299l0.215-0.312l0.201-0.323l0.186-0.334l0.172-0.345l0.156-0.356l0.145-0.366l0.129-0.376
		l0.117-0.386l0.303-1.166l-1.004-0.067l-0.223-0.002l-0.225,0.01l-0.225,0.021l-0.229,0.03l-0.227,0.039l-0.229,0.049l-0.23,0.056
		l-0.229,0.064l-0.23,0.07L190.018,238.183L190.018,238.183z M36.114,239.143l-0.036-1.534l-0.029-0.543l-0.045-0.525l-0.06-0.51
		l-0.074-0.493l-0.089-0.477l-0.103-0.461l-0.116-0.445l-0.128-0.429l-0.14-0.413l-0.152-0.397l-0.164-0.383l-0.174-0.366
		l-0.184-0.351l-0.194-0.336l-0.203-0.32l-0.211-0.305l-0.219-0.29l-0.227-0.274l-0.234-0.261l-0.24-0.245l-0.245-0.23l-0.25-0.216
		l-0.255-0.201l-0.259-0.187l-0.262-0.172l-0.265-0.158l-0.268-0.145l-0.269-0.13l-0.27-0.117l-0.271-0.103l-1.071-0.354
		l-0.09,1.252l-0.016,0.405l0,0.402l0.013,0.4l0.027,0.398l0.041,0.394l0.055,0.391l0.069,0.386l0.083,0.382l0.097,0.377l0.11,0.372
		l0.124,0.365l0.138,0.36l0.151,0.354l0.165,0.347l0.178,0.339l0.192,0.332l0.205,0.323l0.219,0.315l0.231,0.306l0.245,0.297
		l0.258,0.287l0.271,0.276l0.284,0.266l0.296,0.255l0.309,0.244l0.321,0.231l0.333,0.219l0.228,0.136l-0.088-0.029l-0.23-0.07
		l-0.229-0.064l-0.229-0.056l-0.229-0.049l-0.228-0.039l-0.227-0.03l-0.226-0.021l-0.224-0.01l-0.223,0.002l-1.005,0.067
		l0.304,1.166l0.116,0.386l0.129,0.376l0.143,0.366l0.157,0.356l0.172,0.345l0.186,0.334l0.2,0.323l0.216,0.312l0.23,0.299
		l0.246,0.286l0.261,0.273l0.277,0.26l0.291,0.246l0.306,0.231l0.321,0.218l0.336,0.203l0.351,0.188l0.365,0.174l0.38,0.157
		l0.395,0.143l0.409,0.128l0.24,0.063l-0.268-0.012l-0.269-0.007l-0.259-0.001l-0.249,0.005l-0.238,0.012l-1.018,0.083l0.33,1.207
		l0.147,0.434l0.171,0.417l0.194,0.402l0.218,0.386l0.24,0.369l0.262,0.352l0.282,0.335l0.303,0.318l0.322,0.301l0.341,0.282
		l0.359,0.267l0.376,0.249l0.393,0.232l0.409,0.216l0.424,0.199l0.44,0.185l0.455,0.168l0.469,0.152l0.481,0.137l0.496,0.122
		l0.508,0.107l0.521,0.093l0.534,0.078l0.545,0.064l0.557,0.051l0.568,0.036l0.53,0.021l-0.01,0.002l-0.306,0.077l-0.305,0.088
		l-0.305,0.098l-0.306,0.109l-0.306,0.119l-0.306,0.131l-0.307,0.141l-0.308,0.152l-0.308,0.163l-0.31,0.175l-0.311,0.185
		l-0.313,0.196l-0.314,0.208l-1.229,0.849l1.349,0.692l0.369,0.178l0.375,0.169l0.381,0.159l0.386,0.151l0.394,0.142l0.4,0.132
		l0.405,0.121l0.413,0.112l0.419,0.102l0.426,0.092l0.432,0.08l0.439,0.07l0.446,0.059l0.454,0.048l0.46,0.036l0.467,0.024
		l0.475,0.013l0.482,0.001l0.49-0.011l0.497-0.023l0.505-0.036l0.513-0.049l0.52-0.062l0.392-0.056l-0.223,0.071l-0.314,0.109
		l-0.316,0.121l-0.316,0.131l-0.319,0.143l-0.32,0.153l-0.323,0.165l-0.325,0.175l-0.328,0.186l-1.282,0.767l1.3,0.779l0.356,0.202
		l0.362,0.193l0.369,0.185l0.376,0.176l0.383,0.167l0.39,0.158l0.397,0.148l0.404,0.139l0.412,0.13l0.418,0.119l0.426,0.109
		l0.434,0.099l0.441,0.088l0.449,0.077l0.458,0.066l0.464,0.056l0.473,0.044l0.481,0.033l0.489,0.021l0.497,0.01l0.493-0.003
		l-0.371,0.079l-0.464,0.112l-0.456,0.122l-0.447,0.135l-0.437,0.146l-0.425,0.158l-0.413,0.17l-0.399,0.183l-0.384,0.197
		l-0.367,0.21l-1.309,0.84l1.408,0.726l0.433,0.198l0.47,0.193l0.506,0.188l0.539,0.184l0.571,0.178l0.601,0.173l0.628,0.167
		l0.654,0.16l0.678,0.153l0.699,0.146l0.718,0.138l0.734,0.129l0.75,0.119l0.761,0.11l0.771,0.099l0.778,0.088l0.785,0.077
		l0.787,0.063l0.789,0.051l0.787,0.037l0.783,0.022l0.778,0.008l0.77-0.008l0.759-0.024l0.747-0.041l0.732-0.06l0.715-0.078
		l0.696-0.097l0.675-0.117l0.652-0.139l1.186-0.305l-0.137-1.033l-0.076-0.455l-0.093-0.452l-0.108-0.451l-0.125-0.447l-0.142-0.445
		l-0.159-0.442l-0.176-0.44l-0.193-0.437l-0.21-0.434l-0.228-0.431l-0.245-0.428l-0.262-0.426l-0.28-0.422l-0.297-0.418
		l-0.315-0.416l-0.333-0.412l-0.352-0.41l-0.37-0.406l-0.388-0.403l-0.406-0.4l-0.425-0.398l-0.444-0.395l-0.462-0.392l-0.482-0.39
		l-0.5-0.386l-0.52-0.384l-0.539-0.381l-0.56-0.379l-0.579-0.375l-0.599-0.374l-1.585-0.95l-0.051,1.439l-0.011,0.311l-0.01,0.313
		l-0.009,0.315l-0.008,0.317l-0.006,0.319l-0.002,0.321l0.001,0.322l0.004,0.323l0.01,0.324l0.014,0.323l0.021,0.324l0.026,0.323
		l0.034,0.323l0.041,0.321l0.05,0.32l0.059,0.318l0.069,0.316l0.079,0.314l0.091,0.312l0.102,0.308l0.116,0.304l0.128,0.301
		l0.143,0.294l0.157,0.29l0.143,0.234l-0.28-0.036l-0.433-0.046l-0.443-0.037l-0.454-0.027l-0.461-0.018l-0.469-0.01h-0.475
		l-0.138,0.003l0.063-0.011l0.588-0.118l1.319-0.289l-0.379-1.131l-0.146-0.425l-0.148-0.424l-0.151-0.42l-0.154-0.419l-0.158-0.415
		l-0.162-0.412l-0.165-0.41l-0.17-0.406l-0.173-0.403l-0.177-0.399l-0.182-0.396l-0.187-0.393l-0.191-0.388l-0.196-0.385
		l-0.201-0.381l-0.207-0.376l-0.212-0.371l-0.218-0.367l-0.224-0.362l-0.23-0.357l-0.236-0.352l-0.243-0.348l-0.25-0.341
		l-0.257-0.337l-0.264-0.33L59,249.882l-0.278-0.318l-0.286-0.313l-0.293-0.305l-0.301-0.299l-1.308-1.236l-0.147,1.682
		l-0.027,0.303l-0.029,0.305l-0.03,0.306l-0.029,0.308l-0.029,0.309l-0.027,0.309l-0.024,0.31l-0.021,0.311l-0.018,0.311
		l-0.014,0.311l-0.008,0.31l-0.002,0.311l0.005,0.31l0.012,0.31l0.021,0.309l0.029,0.308l0.021,0.164l-0.008-0.021l-0.176-0.412
		l-0.179-0.41l-0.182-0.406l-0.185-0.404l-0.188-0.401l-0.191-0.397l-0.196-0.395l-0.199-0.391l-0.204-0.387l-0.208-0.384
		l-0.212-0.379l-0.216-0.375l-0.221-0.371l-0.227-0.366l-0.231-0.361l-0.236-0.357l-0.242-0.351l-0.248-0.347l-0.253-0.342
		l-0.259-0.336l-0.265-0.33l-0.272-0.324l-0.278-0.318l-0.284-0.312l-0.292-0.306l-0.298-0.3l-0.306-0.292l-0.313-0.285l-0.32-0.278
		l-1.386-1.147l-0.036,1.688l-0.008,0.305l-0.003,0.118l-0.019-0.069l-0.133-0.425l-0.146-0.411l-0.16-0.398l-0.175-0.383
		l-0.189-0.368l-0.204-0.353l-0.219-0.335l-0.235-0.318l-0.251-0.3l-0.268-0.281l-0.284-0.262l-0.301-0.239l-0.317-0.217
		l-0.333-0.193l-0.349-0.169l-0.364-0.143l-0.378-0.116l-0.392-0.09l-1.056-0.163l-0.117,0.879l-0.016,0.13l-0.061-0.42l-0.074-0.43
		l-0.086-0.42l-0.098-0.409l-0.109-0.397l-0.121-0.386l-0.133-0.374l-0.146-0.361L41,237.046l-0.172-0.334l-0.186-0.321l-0.2-0.306
		l-0.214-0.29L40,235.521l-0.245-0.257l-0.26-0.238l-0.275-0.219l-0.29-0.198l-0.305-0.177l-0.319-0.154l-0.333-0.131l-0.346-0.106
		l-0.358-0.082l-1.024-0.158l-0.111,0.863l-0.022,0.193l-0.019,0.196l-0.016,0.2l-0.013,0.201l-0.01,0.205l-0.006,0.207l-0.003,0.21
		l0.001,0.212l0.004,0.214l0.008,0.216l0.011,0.218l0.016,0.219l0.019,0.22l0.023,0.221l0.027,0.222l0.032,0.224l0.036,0.223
		l0.041,0.225l0.045,0.224l0.05,0.225l0.054,0.224l0.046,0.175l-0.153-0.087L36.114,239.143L36.114,239.143z M39.926,245.117
		l0.472,0.004l0.544-0.011l1.166-0.056l0.016-0.452l0.018,0.089l0.051,0.233l0.057,0.233l0.063,0.233l0.068,0.233l0.051,0.163
		l-0.124-0.045l-0.278-0.092l-0.285-0.089l-0.293-0.084l-0.299-0.081l-0.305-0.077l-0.309-0.072l-0.313-0.069L39.926,245.117
		L39.926,245.117z M48.488,251.772l0.027-0.805l0.062,0.144l0.137,0.284l0.153,0.279l0.092,0.15l-0.169-0.022L48.488,251.772
		L48.488,251.772z M54.256,256.393l0.13-0.029l0.57-0.143l0.58-0.155l1.05-0.305l0.027,0.079l0.118,0.293l0.134,0.289l0.083,0.155
		l-0.168-0.033l-0.309-0.053l-0.309-0.044l-0.309-0.034l-0.308-0.024l-0.308-0.016l-0.309-0.005l-0.308,0.005l-0.308,0.015
		L54.256,256.393L54.256,256.393z M73.758,257.9l4.701,9.819l-11.545,1.976l1.493,1.203l0.37,0.271l0.388,0.26l0.406,0.247
		l0.425,0.235l0.445,0.223l0.464,0.21l0.483,0.196l0.503,0.184l0.524,0.171l0.544,0.157l0.565,0.144l0.587,0.13l0.609,0.115
		l0.631,0.102l0.654,0.088l0.677,0.073l0.701,0.059l0.725,0.043l0.749,0.029l0.774,0.014l0.799-0.002l0.825-0.018l0.852-0.033
		l0.877-0.049l0.905-0.065l0.933-0.082l0.961-0.099l0.989-0.115l1.018-0.133l1.047-0.149l1.796-0.279l-0.35-1.403l-0.205-0.69
		l-0.233-0.671l-0.26-0.652l-0.287-0.634l-0.311-0.614l-0.335-0.596l-0.359-0.578l-0.381-0.559l-0.402-0.541l-0.422-0.521
		l-0.442-0.504l-0.46-0.485l-0.477-0.468l-0.494-0.451l-0.509-0.433l-0.524-0.415l-0.538-0.399l-0.55-0.382l-0.562-0.364
		l-0.573-0.349l-0.583-0.333l-0.592-0.316l-0.601-0.301l-0.608-0.285l-0.615-0.269l-0.621-0.255l-0.625-0.239l-0.63-0.225
		l-0.633-0.21l-0.635-0.195L73.758,257.9L73.758,257.9z M181.838,244.601l0.016,0.454l1.166,0.056l0.545,0.011l0.471-0.004
		l-0.303,0.062l-0.311,0.069l-0.309,0.072l-0.305,0.077l-0.301,0.081l-0.291,0.084l-0.287,0.089l-0.277,0.092l-0.123,0.045
		l0.051-0.163l0.068-0.233l0.063-0.233l0.059-0.233l0.051-0.233L181.838,244.601L181.838,244.601z M175.447,250.967l0.027,0.805
		l-0.303,0.031l-0.17,0.022l0.094-0.149l0.152-0.28l0.137-0.284L175.447,250.967L175.447,250.967z M167.375,255.761l1.051,0.305
		l0.58,0.155l0.57,0.143l0.129,0.029l-0.057-0.005l-0.309-0.015l-0.309-0.005l-0.307,0.005l-0.309,0.016l-0.309,0.024l-0.309,0.034
		l-0.309,0.044l-0.309,0.053l-0.168,0.033l0.082-0.155l0.135-0.289l0.117-0.293L167.375,255.761L167.375,255.761z M150.203,257.901
		l-2.055,0.585l-0.637,0.195l-0.633,0.21l-0.629,0.225l-0.625,0.239l-0.621,0.255l-0.615,0.27l-0.607,0.284l-0.602,0.301
		l-0.592,0.316l-0.584,0.333l-0.572,0.349l-0.563,0.364l-0.551,0.382l-0.537,0.399l-0.523,0.415l-0.51,0.433l-0.494,0.451
		l-0.477,0.468l-0.461,0.485l-0.441,0.504l-0.424,0.521l-0.402,0.541l-0.381,0.559l-0.357,0.577l-0.336,0.597l-0.313,0.614
		l-0.285,0.634l-0.26,0.652l-0.234,0.671l-0.205,0.69l-0.35,1.403l1.797,0.279l1.047,0.149l1.018,0.133l0.99,0.115l0.959,0.099
		l0.934,0.082l0.904,0.065l0.879,0.049l0.852,0.033l0.824,0.018l0.799,0.002l0.773-0.014l0.75-0.029l0.725-0.043l0.699-0.059
		l0.678-0.073l0.654-0.088l0.631-0.102l0.609-0.115l0.586-0.13l0.566-0.144l0.545-0.157l0.523-0.171l0.502-0.184l0.484-0.196
		l0.465-0.21l0.443-0.223l0.426-0.235l0.406-0.247l0.389-0.26l0.369-0.271l1.494-1.203l-11.545-1.976L150.203,257.901
		L150.203,257.901z M110.285,280.685l-0.22-0.175l-0.221-0.175l-0.222-0.174l-0.223-0.173l-0.224-0.172l-0.225-0.171l-0.227-0.17
		l-0.228-0.169l-0.229-0.169l-0.229-0.167l-0.23-0.167l-0.232-0.166l-0.233-0.164l-0.234-0.164l-0.236-0.163l-0.236-0.162
		l-0.238-0.16l-0.239-0.161l-0.24-0.159l-0.241-0.158l-0.242-0.157l-0.2-0.129l-0.007-0.008l-0.108-0.138l-0.157-0.21l-0.199-0.27
		l-0.237-0.324l-0.273-0.372l-0.307-0.417l-0.339-0.456l-0.369-0.491l-0.397-0.522l-0.423-0.55l-0.448-0.571l-0.47-0.59
		l-0.492-0.604l-0.511-0.614l-0.529-0.619l-0.545-0.622l-0.559-0.618l-0.572-0.612l-0.583-0.601l-0.592-0.586l-0.6-0.566
		l-0.607-0.544l-0.613-0.517l-0.616-0.484l-0.619-0.449l-0.621-0.409l-0.623-0.364l-0.624-0.316l-0.624-0.262l-1.944-0.633
		l4.501,11.356l-12.778,1.077l1.618,1.31l0.354,0.263l0.374,0.257l0.392,0.247l0.411,0.239l0.43,0.229l0.45,0.221l0.469,0.211
		l0.489,0.2l0.508,0.19l0.528,0.18l0.549,0.168l0.569,0.156l0.59,0.146l0.61,0.132l0.632,0.12l0.652,0.107l0.674,0.094l0.696,0.08
		l0.718,0.066l0.74,0.052l0.763,0.037l0.785,0.021l0.808,0.006l0.831-0.009l0.854-0.026l0.877-0.042l0.902-0.061l0.925-0.076
		l0.95-0.096l0.974-0.112l0.661-0.088l0.067,0.064l0.105,0.102l0.118,0.112l0.132,0.127l0.146,0.14l0.158,0.151l0.171,0.163
		l0.184,0.175l0.195,0.186l0.207,0.196l0.217,0.207l0.228,0.217l0.237,0.227l0.247,0.236l0.28,0.268l0.513,0.492l0.281,0.269
		l0.307,0.296l0.574,0.555l0.306,0.297l0.311,0.302l0.316,0.308l0.32,0.313l0.167,0.165l-0.102,0.101l-0.291,0.293l-0.288,0.295
		l-0.287,0.296l-0.284,0.298l-0.282,0.301l-0.28,0.301l-0.278,0.304l-0.275,0.305l-0.274,0.307l-0.271,0.308l-0.269,0.311
		l-0.267,0.312l-0.265,0.313l-0.263,0.314l-0.261,0.316l-0.259,0.318l-0.257,0.319l-0.255,0.321l-0.253,0.322l-0.25,0.324
		l-0.25,0.325l-0.247,0.327l-0.246,0.328l-0.244,0.33l-0.241,0.332l-0.239,0.333l-0.238,0.334l-0.236,0.336l-0.234,0.337
		l-0.404,0.59l0.151,0.57l0.084,0.272l0.093,0.258l0.102,0.244l0.111,0.23l0.122,0.217l0.134,0.203l0.147,0.188l0.16,0.173
		l0.174,0.156l0.188,0.137l0.201,0.115l0.213,0.092l0.222,0.067l0.228,0.043l0.665,0.05l0.274-0.605l0.092-0.182l0.11-0.197
		l0.127-0.213l0.145-0.227l0.16-0.239l0.175-0.251l0.19-0.262l0.204-0.272l0.217-0.282l0.229-0.291l0.242-0.3l0.253-0.307
		l0.264-0.314l0.274-0.322l0.284-0.328l0.292-0.333l0.302-0.339l0.309-0.345l0.317-0.348l0.323-0.353l0.329-0.355l0.335-0.358
		l0.34-0.36l0.344-0.363l0.348-0.364l0.352-0.365l0.354-0.366l0.356-0.366l0.359-0.365l0.245-0.249l0.245,0.249l0.358,0.365
		l0.356,0.366l0.354,0.366l0.352,0.365l0.349,0.364l0.344,0.363l0.34,0.36l0.334,0.358l0.33,0.356l0.324,0.352l0.316,0.348
		l0.309,0.345l0.301,0.339l0.293,0.333l0.283,0.328l0.275,0.322l0.264,0.314l0.252,0.307l0.242,0.3l0.23,0.291l0.217,0.282
		l0.203,0.272l0.189,0.262l0.176,0.251l0.16,0.239l0.145,0.227l0.127,0.213l0.111,0.197l0.092,0.182l0.275,0.606l0.664-0.051
		l0.229-0.043l0.221-0.067l0.215-0.092l0.201-0.116l0.188-0.136l0.174-0.155l0.16-0.174l0.146-0.188l0.135-0.203l0.121-0.217
		l0.111-0.23l0.102-0.244l0.094-0.258l0.084-0.271l0.152-0.57l-0.406-0.591l-0.234-0.337l-0.234-0.336l-0.238-0.334l-0.24-0.333
		l-0.24-0.332l-0.244-0.33l-0.244-0.328l-0.248-0.327l-0.248-0.325l-0.252-0.324l-0.252-0.322l-0.256-0.321l-0.256-0.319
		l-0.26-0.317l-0.262-0.317l-0.262-0.314l-0.266-0.313l-0.268-0.312l-0.268-0.311l-0.271-0.308l-0.273-0.307l-0.275-0.305
		l-0.277-0.304l-0.281-0.301l-0.281-0.301l-0.283-0.297l-0.287-0.297l-0.287-0.295l-0.291-0.293l-0.102-0.101l0.168-0.165
		l0.32-0.313l0.316-0.308l0.311-0.302l0.305-0.297l0.301-0.29l0.293-0.284l0.287-0.276l0.281-0.269l0.271-0.262l0.266-0.253
		l0.256-0.245l0.246-0.236l0.307-0.291l0.377-0.359l0.205-0.196l0.195-0.186l0.184-0.175l0.172-0.163l0.158-0.151l0.146-0.139
		l0.131-0.127l0.119-0.114l0.104-0.101l0.068-0.064l0.66,0.088l0.975,0.112l0.949,0.096l0.926,0.076l0.9,0.061l0.879,0.042
		l0.854,0.026l0.832,0.009l0.807-0.006l0.785-0.021l0.762-0.037l0.74-0.052l0.719-0.066l0.695-0.08l0.674-0.094l0.654-0.107
		l0.631-0.12l0.609-0.132l0.59-0.146l0.57-0.156l0.549-0.168l0.527-0.18l0.51-0.19l0.488-0.2l0.469-0.211l0.449-0.221l0.43-0.229
		l0.412-0.239l0.391-0.247l0.375-0.256l0.354-0.264l1.619-1.31l-12.779-1.077l4.502-11.355l-1.943,0.632l-0.625,0.262l-0.623,0.316
		l-0.623,0.364l-0.621,0.409l-0.619,0.449l-0.617,0.484l-0.611,0.517l-0.607,0.543l-0.6,0.567l-0.594,0.586l-0.582,0.601
		l-0.572,0.612l-0.559,0.619l-0.545,0.621l-0.527,0.619l-0.512,0.614l-0.492,0.604l-0.471,0.59l-0.447,0.571l-0.424,0.55
		l-0.396,0.522l-0.369,0.491l-0.338,0.456l-0.307,0.417l-0.273,0.372l-0.236,0.324l-0.199,0.27l-0.158,0.21l-0.107,0.138
		l-0.008,0.009l-0.199,0.128l-0.242,0.157l-0.24,0.158l-0.24,0.159l-0.238,0.161l-0.238,0.16l-0.236,0.162l-0.236,0.163
		l-0.232,0.164l-0.234,0.165l-0.23,0.166l-0.23,0.166l-0.23,0.167l-0.229,0.169l-0.227,0.169l-0.227,0.17l-0.227,0.171l-0.223,0.172
		l-0.223,0.173l-0.223,0.174l-0.221,0.175l-0.219,0.175l-0.22,0.177l-0.217,0.177l-0.216,0.178l-0.216,0.179l-0.214,0.18
		l-0.213,0.181l-0.212,0.182l-0.188,0.162l-0.188-0.162l-0.212-0.182l-0.214-0.181l-0.214-0.18l-0.215-0.179l-0.217-0.178
		l-0.218-0.177L110.285,280.685L110.285,280.685z"/>
	<path fill-rule="evenodd" clip-rule="evenodd" fill="#00A651" d="M188.539,238.173c3.844-1.579,5.779-5.39,5.41-9.497
		C191.369,229.465,188.592,232.328,188.539,238.173L188.539,238.173z M35.423,238.173c-3.844-1.579-5.779-5.39-5.41-9.497
		C32.593,229.465,35.371,232.328,35.423,238.173L35.423,238.173z M36.82,234.564c-0.262,1.89-0.086,4.391,1.016,6.475
		c-1.37-1.059-4.289-2.731-6.178-2.543c0.972,4.025,3.933,6.272,9.803,5.921C41.69,239.114,40.336,234.979,36.82,234.564
		L36.82,234.564z M42.691,240.347c-0.291,2.095-0.172,4.521,1.05,6.831c-1.518-1.174-6.254-1.989-8.348-1.78
		c1.077,4.462,5.936,6.26,12.443,5.87C48.09,245.391,46.589,240.808,42.691,240.347L42.691,240.347z M48.58,244.103
		c3.397,2.737,5.561,6.732,7.353,11.151c-6.196,1.856-10.782,1.276-14.467-0.67c3.269-2.31,6.023-2.65,9.367-1.671
		C48.071,250.766,48.524,247.37,48.58,244.103L48.58,244.103z M57.08,248.847c3.208,2.956,5.104,7.085,6.6,11.613
		c-6.305,1.441-10.843,0.56-14.391-1.625c3.414-2.089,6.186-2.247,9.458-1.049C56.133,255.462,56.809,252.103,57.08,248.847
		L57.08,248.847z M65.168,253.464c6.607,3.882,9.69,8.11,10.221,12.757c-6.227,1.749-17.614-0.094-21.265-2.102
		c3.308-2.254,10.115-2.548,13.442-1.512C64.842,260.414,65.057,256.73,65.168,253.464L65.168,253.464z M75.001,258.949l4.442,9.279
		l-10.958,1.876c3.41,2.871,9.752,4.039,21.323,2.172C88.155,264.93,81.656,260.768,75.001,258.949L75.001,258.949z
		 M187.143,234.564c0.262,1.89,0.086,4.391-1.018,6.475c1.371-1.059,4.289-2.731,6.18-2.543c-0.973,4.025-3.934,6.272-9.805,5.921
		C182.271,239.114,183.627,234.979,187.143,234.564L187.143,234.564z M181.271,240.347c0.289,2.095,0.172,4.521-1.051,6.831
		c1.518-1.174,6.254-1.989,8.348-1.78c-1.076,4.462-5.936,6.26-12.441,5.87C175.871,245.391,177.373,240.808,181.271,240.347
		L181.271,240.347z M175.383,244.103c-3.396,2.737-5.563,6.732-7.354,11.151c6.197,1.856,10.783,1.276,14.467-0.67
		c-3.268-2.31-6.023-2.65-9.367-1.671C175.891,250.766,175.438,247.37,175.383,244.103L175.383,244.103z M166.883,248.847
		c-3.209,2.956-5.105,7.085-6.602,11.613c6.307,1.441,10.844,0.56,14.393-1.625c-3.414-2.089-6.186-2.247-9.457-1.049
		C167.83,255.462,167.154,252.103,166.883,248.847L166.883,248.847z M158.793,253.464c-6.607,3.882-9.689,8.11-10.221,12.757
		c6.227,1.749,17.615-0.094,21.266-2.102c-3.309-2.254-10.115-2.548-13.441-1.512C159.119,260.414,158.904,256.73,158.793,253.464
		L158.793,253.464z M148.961,258.949l-4.441,9.279l10.957,1.876c-3.41,2.871-9.752,4.039-21.322,2.172
		C135.807,264.93,142.307,260.768,148.961,258.949L148.961,258.949z M119.127,277.595c-2.572,1.645-4.945,3.447-7.146,5.392
		c-2.2-1.944-4.574-3.747-7.146-5.392c-0.162,0.119-8.07-12.165-14.059-13.801l4.31,10.872l-12.018,1.013
		c3.263,2.747,9.636,4.481,20.316,2.99c-0.033,0.023,2.976,2.807,6.494,6.27c-3.124,3.044-5.871,6.39-8.315,9.977
		c0.354,1.438,0.972,2.168,1.855,2.19c0.842-1.999,4.712-6.19,8.563-10.072c3.851,3.882,7.72,8.073,8.562,10.072
		c0.885-0.022,1.504-0.753,1.857-2.19c-2.445-3.588-5.191-6.933-8.316-9.977c3.52-3.463,6.527-6.246,6.494-6.27
		c10.68,1.491,17.053-0.243,20.316-2.99l-12.018-1.013l4.309-10.872C127.197,265.43,119.289,277.714,119.127,277.595
		L119.127,277.595z"/>
	<polygon fill-rule="evenodd" clip-rule="evenodd" points="124.869,198.337 125.279,198.21 125.686,198.078 126.092,197.942 
		126.496,197.803 126.898,197.66 127.301,197.513 127.699,197.362 128.096,197.208 128.49,197.05 128.885,196.889 129.275,196.723 
		129.666,196.554 130.053,196.381 130.438,196.205 130.822,196.024 131.203,195.841 131.582,195.654 131.959,195.464 
		132.334,195.27 132.709,195.071 133.078,194.87 133.447,194.666 133.814,194.458 134.113,194.284 137.164,199.446 143.334,209.884 
		150.93,209.562 139.578,190.516 139.756,190.372 139.934,190.226 140.113,190.077 140.293,189.928 140.32,189.903 152.018,209.515 
		154.143,209.425 165.369,208.946 165.846,197.721 165.941,195.514 146.283,183.791 146.328,183.735 146.473,183.554 
		146.615,183.372 146.758,183.188 146.875,183.035 165.986,194.428 166.307,186.911 155.869,180.742 150.469,177.551 
		150.643,177.233 150.84,176.866 151.035,176.496 151.227,176.124 151.412,175.75 151.598,175.373 151.777,174.995 151.953,174.615 
		152.127,174.233 152.297,173.849 152.463,173.463 152.625,173.075 152.785,172.686 152.939,172.294 153.092,171.9 153.24,171.505 
		153.385,171.108 153.525,170.71 153.662,170.309 153.795,169.907 153.924,169.503 154.051,169.097 154.172,168.689 
		154.289,168.281 154.404,167.871 154.5,167.511 160.689,169.102 172.434,172.12 177.576,166.52 155.695,160.982 155.719,160.761 
		155.74,160.53 155.764,160.299 155.783,160.067 155.787,160.023 178.313,165.719 179.752,164.151 187.352,155.875 179.752,147.6 
		178.258,145.973 155.701,151.675 155.695,151.606 155.67,151.375 155.645,151.145 155.617,150.916 155.594,150.721 
		177.521,145.172 172.434,139.631 154.283,144.297 154.178,143.927 154.057,143.522 153.932,143.119 153.803,142.717 
		153.672,142.316 153.535,141.917 153.396,141.521 153.252,141.126 153.105,140.732 152.955,140.341 152.801,139.951 
		152.643,139.563 152.482,139.177 152.316,138.792 152.148,138.411 151.977,138.031 151.803,137.652 151.623,137.275 
		151.441,136.901 151.256,136.529 151.066,136.158 150.873,135.79 150.678,135.423 150.479,135.059 150.275,134.696 
		150.113,134.411 155.869,131.009 166.307,124.84 165.982,117.243 146.383,128.928 146.244,128.755 146.098,128.575 
		145.951,128.394 145.803,128.215 145.773,128.182 165.938,116.156 165.848,114.03 165.369,102.805 154.143,102.327 
		151.936,102.233 139.93,122.365 139.891,122.333 139.711,122.185 139.531,122.039 139.35,121.894 139.182,121.76 150.85,102.187 
		143.334,101.867 137.164,112.305 133.744,118.093 133.455,117.929 133.092,117.729 132.729,117.531 132.361,117.336 
		131.992,117.146 131.621,116.958 131.25,116.773 130.875,116.593 130.498,116.416 130.119,116.242 129.74,116.071 129.357,115.905 
		128.973,115.741 128.586,115.582 128.199,115.425 127.809,115.273 127.418,115.124 127.023,114.979 126.629,114.837 
		126.232,114.699 125.834,114.564 125.432,114.434 125.031,114.307 124.627,114.184 124.223,114.064 123.859,113.961 
		125.523,107.483 128.541,95.74 122.941,90.597 117.359,112.662 117.158,112.637 116.928,112.611 116.697,112.586 116.467,112.563 
		116.402,112.556 122.141,89.861 120.574,88.422 112.298,80.821 104.022,88.422 102.395,89.916 108.106,112.503 108.057,112.508 
		107.825,112.529 107.594,112.552 107.364,112.576 107.148,112.599 101.594,90.651 96.054,95.74 99.072,107.483 100.695,113.798 
		100.338,113.894 99.929,114.008 99.521,114.126 99.116,114.248 98.71,114.375 98.308,114.504 97.907,114.638 97.509,114.774 
		97.111,114.915 96.716,115.06 96.322,115.208 95.93,115.359 95.54,115.515 95.151,115.674 94.764,115.837 94.38,116.003 
		93.997,116.173 93.616,116.346 93.238,116.523 92.861,116.703 92.486,116.887 92.113,117.074 91.742,117.264 91.374,117.458 
		91.007,117.656 90.695,117.827 87.431,112.305 81.262,101.867 73.746,102.187 85.214,121.425 85.059,121.544 84.877,121.686 
		84.694,121.829 84.514,121.974 84.459,122.018 72.66,102.233 70.453,102.327 59.227,102.805 58.749,114.03 58.659,116.156 
		78.398,127.929 78.375,127.957 78.226,128.135 78.077,128.314 77.93,128.494 77.785,128.672 58.612,117.243 58.289,124.84 
		68.727,131.009 74.012,134.132 73.841,134.427 73.633,134.792 73.429,135.159 73.228,135.529 73.03,135.901 72.836,136.275 
		72.646,136.651 72.459,137.029 72.275,137.409 72.096,137.791 71.919,138.175 71.747,138.561 71.577,138.949 71.412,139.34 
		71.25,139.731 71.092,140.125 70.937,140.521 70.786,140.918 70.64,141.318 70.497,141.719 70.356,142.122 70.221,142.526 
		70.089,142.933 69.961,143.341 69.837,143.75 69.722,144.145 52.163,139.631 47.074,145.172 68.391,150.566 68.366,150.754 
		68.338,150.984 68.311,151.213 68.285,151.444 68.277,151.52 46.338,145.973 44.844,147.6 37.244,155.875 44.844,164.151 
		46.283,165.719 68.189,160.181 68.193,160.229 68.214,160.461 68.237,160.692 68.261,160.923 68.284,161.139 47.019,166.52 
		52.163,172.12 69.504,167.662 69.608,168.048 69.726,168.463 69.847,168.876 69.972,169.288 70.101,169.698 70.233,170.106 
		70.371,170.513 70.511,170.918 70.655,171.321 70.804,171.723 70.955,172.121 71.111,172.519 71.271,172.915 71.434,173.309 
		71.601,173.7 71.771,174.091 71.945,174.479 72.123,174.864 72.304,175.248 72.489,175.63 72.678,176.01 72.87,176.388 
		73.066,176.763 73.265,177.136 73.467,177.507 73.649,177.833 68.727,180.742 58.289,186.911 58.609,194.428 77.287,183.293 
		77.414,183.456 77.557,183.637 77.702,183.818 77.848,183.999 77.886,184.045 58.655,195.514 58.749,197.721 59.227,208.946 
		70.453,209.425 72.579,209.515 84.065,190.255 84.105,190.288 84.285,190.436 84.466,190.581 84.646,190.727 84.814,190.858 
		73.665,209.562 81.262,209.884 87.431,199.446 90.32,194.56 90.643,194.741 91.014,194.945 91.388,195.146 91.762,195.343 
		92.14,195.536 92.52,195.727 92.902,195.912 93.286,196.096 93.671,196.274 94.059,196.45 94.449,196.622 94.84,196.79 
		95.234,196.955 95.63,197.116 96.028,197.272 96.427,197.426 96.829,197.575 97.232,197.721 97.637,197.863 98.043,198.001 
		98.452,198.135 98.862,198.266 99.274,198.392 99.688,198.514 100.103,198.633 100.493,198.739 96.054,216.011 101.594,221.1 
		106.941,199.971 107.151,199.994 107.381,200.019 107.613,200.042 107.844,200.064 107.898,200.069 102.395,221.835 
		104.022,223.329 112.298,230.93 120.574,223.329 122.141,221.891 116.611,200.017 116.68,200.01 116.912,199.984 117.143,199.958 
		117.371,199.931 117.564,199.907 122.941,221.154 128.541,216.011 125.523,204.268 124.061,198.576 124.459,198.461 
		124.869,198.337 	"/>
	<path fill-rule="evenodd" clip-rule="evenodd" fill="#FFF200" d="M164.971,187.637l-9.766-5.771l-6.508-3.846
		c2.199-3.709,3.855-7.779,4.854-12.101l7.465,1.919l10.986,2.824l3.135-3.414l-20.873-5.281c0.158-1.183,0.266-2.381,0.326-3.592
		l23.287,5.888l0.914-0.994l6.789-7.393l-6.789-7.393l-0.969-1.054l-23.287,5.888c-0.084-1.206-0.215-2.397-0.396-3.573
		l20.943-5.299l-3.08-3.354l-18.645,4.792c-1.072-4.268-2.787-8.28-5.035-11.929l6.883-4.067l9.764-5.771l-0.195-4.631
		l-18.713,11.155c-0.725-0.96-1.488-1.888-2.289-2.782l20.83-12.423l-0.059-1.348l-0.426-10.029l-10.029-0.426l-1.43-0.061
		l-12.4,20.792c-0.898-0.795-1.828-1.556-2.791-2.274l11.143-18.69l-4.551-0.194l-5.771,9.765l-4.084,6.91
		c-3.65-2.233-7.664-3.93-11.93-4.988l1.986-7.732l2.824-10.986l-3.414-3.135l-5.332,21.073c-1.178-0.176-2.371-0.301-3.578-0.379
		l5.926-23.435l-0.994-0.913l-7.394-6.79l-7.393,6.79l-1.054,0.968l5.902,23.345c-1.21,0.063-2.406,0.178-3.588,0.339l-5.299-20.942
		l-3.354,3.081l2.824,10.986l1.95,7.587c-4.307,1.001-8.362,2.657-12.059,4.854l-3.919-6.63l-5.771-9.765l-4.55,0.194l10.95,18.369
		c-0.97,0.705-1.911,1.448-2.816,2.23L71.938,103.57l-1.43,0.061l-10.029,0.426l-0.427,10.029l-0.057,1.348l20.416,12.176
		c-0.808,0.889-1.577,1.814-2.309,2.77l-18.279-10.896l-0.197,4.631l9.765,5.771l6.419,3.794c-2.305,3.678-4.065,7.731-5.167,12.048
		l-18.048-4.639l-3.081,3.354l20.335,5.146c-0.186,1.174-0.323,2.365-0.412,3.569l-22.665-5.73l-0.968,1.054l-6.79,7.393l6.79,7.393
		l0.913,0.994l22.663-5.729c0.063,1.211,0.178,2.406,0.339,3.588l-20.26,5.127l3.135,3.414l17.855-4.59
		c1.025,4.372,2.724,8.485,4.979,12.225l-6.038,3.568l-9.765,5.771l0.193,4.551l17.801-10.612c0.712,0.966,1.464,1.901,2.253,2.803
		l-19.882,11.858l0.061,1.43l0.426,10.028l10.029,0.427l1.349,0.058l11.88-19.92c0.898,0.795,1.829,1.554,2.793,2.271l-10.624,17.82
		l4.631,0.197l5.771-9.766l3.55-6.006c3.736,2.271,7.85,3.981,12.224,5.021l-4.57,17.781l3.354,3.08l5.094-20.129
		c1.18,0.167,2.375,0.285,3.584,0.354l-5.693,22.516l1.054,0.969l7.393,6.789l7.394-6.79l0.994-0.912l-5.715-22.606
		c1.205-0.084,2.396-0.216,3.572-0.396l5.127,20.261l3.414-3.135l-2.824-10.986l-1.783-6.94c4.332-1.097,8.4-2.857,12.09-5.165
		l3.721,6.295l5.771,9.766l4.631-0.197l-10.82-18.152c0.955-0.73,1.881-1.499,2.771-2.307l12.098,20.287l1.35-0.058l10.029-0.427
		l0.426-10.028l0.061-1.43l-20.297-12.106c0.779-0.906,1.523-1.847,2.227-2.817l18.242,10.875L164.971,187.637L164.971,187.637z"/>
	
		<polygon fill-rule="evenodd" clip-rule="evenodd" fill="#FFF200" stroke="#FFF200" stroke-width="0.216" stroke-miterlimit="2.6131" points="
		112.015,36.527 114.471,44.085 122.418,44.085 115.988,48.757 118.445,56.315 112.015,51.644 105.586,56.315 108.042,48.757 
		101.612,44.085 109.56,44.085 112.015,36.527 	"/>
	
		<polygon fill-rule="evenodd" clip-rule="evenodd" fill="#FFF200" stroke="#FFF200" stroke-width="0.216" stroke-miterlimit="2.6131" points="
		71.817,36.527 74.273,44.085 82.221,44.085 75.791,48.757 78.247,56.315 71.817,51.644 65.388,56.315 67.844,48.757 61.414,44.085 
		69.362,44.085 71.817,36.527 	"/>
	
		<polygon fill-rule="evenodd" clip-rule="evenodd" fill="#FFF200" stroke="#FFF200" stroke-width="0.216" stroke-miterlimit="2.6131" points="
		152.213,36.527 154.67,44.085 162.617,44.085 156.188,48.757 158.643,56.315 152.213,51.644 145.783,56.315 148.24,48.757 
		141.811,44.085 149.758,44.085 152.213,36.527 	"/>
	<path fill-rule="evenodd" clip-rule="evenodd" stroke="#000000" stroke-width="0.216" stroke-miterlimit="2.6131" d="
		M79.059,139.759l5.885,1.207c2.413,5.684,5.901,11.2,10.462,14.738l3.571,0.05c2.977-5.709,4.2-11.896,4.225-18.41
		c0.502-2.079,1.81-3.487,3.923-4.225l2.575-4.904c1.254-2.389,0.435-5.787,3.099-6.264c3.438-0.403,5.662,1.107,5.342,6.339
		c-1.225,1.342-0.637,4.293-0.955,5.937l4.879,0.15l1.006-3.42l3.002-0.136l0.166,4.712l2.516,0.05l-0.502,20.773l-1.963,1.71v8.853
		h-3.369l-0.654,5.331c-3.826,3.571-1.311,13.785,1.912,12.425c1.207,0.955,0.604,1.709-0.605,2.665l-4.678,0.101
		c-2.139-5.29-2.088-10.337,0.605-15.09v-5.13h-2.717l0.453-8.45c-3.271-0.656-5.886,2.765-8.35,7.746l-0.101,6.137
		c-3.321,1.859-4.243,5.38-4.074,9.656l0.302,9.96h-2.766l0.05-13.43c0.972-5.398,4.192-5.899,3.521-17.806
		c0.956-2.481,2.447-4.293,4.477-5.433l-0.302-11.317c-1.392-2.55-2.783-2.416-4.175,0.402c-1.088,5.408-3.637,10.387-6.337,14.989
		l-4.924-0.179l-0.056-2.187C87.508,151.83,82.831,147.388,79.059,139.759L79.059,139.759z"/>
	
		<path fill-rule="evenodd" clip-rule="evenodd" fill="#FFFFFF" stroke="#000000" stroke-width="0.216" stroke-miterlimit="2.6131" d="
		M111.755,130.945c-0.104,0.957-0.775,2.952-3.12,3.422c-3.104,1.879-3.808,3.757-3.422,5.636l5.636,0.705
		c1.396,0.174,2.172,8.571,1.107,8.856c-1.065,0.285,4.125,0.201,4.125,0.201l-0.1-17.109
		C114.338,129.368,113.399,131.515,111.755,130.945L111.755,130.945z M112.459,125.208c1.426-1.258,2.767-1.594,3.925,0.101
		l-0.504,3.02l-3.421,0.101C111.253,127.49,111.289,126.417,112.459,125.208L112.459,125.208z"/>
	
		<polygon fill-rule="evenodd" clip-rule="evenodd" fill="#2E3192" stroke="#464443" stroke-width="0.216" stroke-miterlimit="2.6131" points="
		39.262,185.816 32.439,200.279 16.85,195.643 17.953,198.112 18.343,198.957 18.743,199.797 19.154,200.633 19.576,201.464 
		20.007,202.29 20.45,203.112 20.902,203.93 21.365,204.742 21.837,205.55 22.321,206.352 22.813,207.149 23.316,207.942 
		23.829,208.729 24.352,209.512 24.884,210.289 25.426,211.062 25.978,211.828 26.539,212.589 27.109,213.345 27.69,214.095 
		28.279,214.84 28.877,215.579 29.485,216.313 30.102,217.041 30.728,217.763 31.363,218.479 32.007,219.189 32.659,219.894 
		33.32,220.592 33.991,221.284 35.303,222.611 36.043,222.066 36.128,222.021 36.382,221.897 36.747,221.725 37.207,221.511 
		37.754,221.259 38.379,220.973 39.074,220.656 39.832,220.313 40.644,219.946 41.501,219.56 42.398,219.155 43.326,218.738 
		44.277,218.312 45.244,217.877 46.218,217.439 47.193,217.003 48.16,216.568 49.111,216.141 50.04,215.724 50.938,215.318 
		51.797,214.932 52.611,214.563 53.371,214.22 54.069,213.901 54.699,213.613 55.252,213.358 55.723,213.14 56.104,212.959 
		56.396,212.816 56.641,212.688 57.491,212.061 56.116,210.824 55.43,210.189 54.753,209.547 54.087,208.897 53.432,208.239 
		52.787,207.574 52.153,206.902 51.53,206.222 50.917,205.535 50.316,204.841 49.726,204.139 49.147,203.431 48.58,202.715 
		48.024,201.993 47.48,201.265 46.947,200.528 46.426,199.786 45.917,199.038 45.421,198.283 44.936,197.522 44.464,196.755 
		44.003,195.981 43.556,195.202 43.121,194.417 42.699,193.626 42.289,192.829 41.893,192.026 41.509,191.219 41.139,190.405 
		40.781,189.586 40.437,188.762 39.262,185.816 	"/>
	
		<path fill-rule="evenodd" clip-rule="evenodd" fill="#FFFFFF" stroke="#000000" stroke-width="0.216" stroke-miterlimit="2.6131" d="
		M39.186,188.183l-6.19,13.119l-14.514-4.316c3.947,8.991,9.714,17.251,16.93,24.468c-0.121-0.105,20.816-9.343,20.696-9.449
		C48.525,205.278,42.684,197.171,39.186,188.183L39.186,188.183z"/>
	
		<polygon fill-rule="evenodd" clip-rule="evenodd" fill="#2E3192" stroke="#464443" stroke-width="0.216" stroke-miterlimit="2.6131" points="
		184.904,185.816 191.729,200.279 207.316,195.643 206.213,198.112 205.824,198.957 205.424,199.797 205.014,200.633 
		204.592,201.464 204.16,202.29 203.717,203.112 203.266,203.93 202.803,204.742 202.33,205.55 201.846,206.352 201.354,207.149 
		200.852,207.942 200.338,208.729 199.814,209.512 199.283,210.289 198.74,211.062 198.189,211.828 197.629,212.589 
		197.057,213.345 196.477,214.095 195.889,214.84 195.289,215.579 194.682,216.313 194.064,217.041 193.439,217.763 
		192.805,218.479 192.16,219.189 191.508,219.894 190.846,220.592 190.176,221.284 188.865,222.611 188.125,222.066 
		188.039,222.021 187.785,221.897 187.422,221.725 186.961,221.511 186.412,221.259 185.787,220.973 185.094,220.656 
		184.336,220.313 183.523,219.946 182.666,219.56 181.77,219.155 180.842,218.738 179.891,218.312 178.924,217.877 177.949,217.439 
		176.975,217.003 176.008,216.568 175.055,216.141 174.127,215.724 173.229,215.318 172.369,214.932 171.557,214.563 
		170.797,214.22 170.098,213.901 169.469,213.613 168.914,213.358 168.445,213.14 168.063,212.959 167.771,212.816 167.527,212.688 
		166.676,212.061 168.051,210.824 168.738,210.189 169.414,209.547 170.08,208.897 170.734,208.239 171.381,207.574 
		172.014,206.902 172.637,206.222 173.25,205.535 173.852,204.841 174.441,204.139 175.02,203.431 175.588,202.715 176.143,201.993 
		176.688,201.265 177.221,200.528 177.74,199.786 178.25,199.038 178.746,198.283 179.23,197.522 179.703,196.755 180.164,195.981 
		180.611,195.202 181.047,194.417 181.469,193.626 181.879,192.829 182.275,192.026 182.658,191.219 183.029,190.405 
		183.387,189.586 183.73,188.762 184.904,185.816 	"/>
	
		<path fill-rule="evenodd" clip-rule="evenodd" fill="#FFFFFF" stroke="#000000" stroke-width="0.216" stroke-miterlimit="2.6131" d="
		M184.98,188.183l6.191,13.119l14.512-4.316c-3.945,8.991-9.713,17.251-16.93,24.468c0.121-0.105-20.814-9.343-20.695-9.449
		C175.641,205.278,181.482,197.171,184.98,188.183L184.98,188.183z"/>
	
		<polygon fill-rule="evenodd" clip-rule="evenodd" fill="#464443" stroke="#000000" stroke-width="0.216" stroke-miterlimit="2.6131" points="
		179.914,202.961 197.01,217.761 194.682,220.936 192.813,223.333 190.877,225.673 188.875,227.954 186.809,230.177 
		184.678,232.338 182.484,234.436 180.232,236.47 177.92,238.438 175.551,240.339 173.125,242.171 170.645,243.934 168.111,245.625 
		165.527,247.242 162.893,248.786 160.209,250.253 157.477,251.643 154.701,252.954 151.879,254.185 149.016,255.333 
		146.111,256.397 143.166,257.378 140.182,258.272 137.162,259.078 134.107,259.795 131.018,260.421 127.895,260.955 
		124.742,261.395 121.561,261.739 118.352,261.987 115.115,262.138 111.854,262.188 108.564,262.137 105.301,261.984 
		102.064,261.731 98.855,261.381 95.677,260.934 92.53,260.391 89.416,259.754 86.336,259.025 83.292,258.206 80.287,257.297 
		77.32,256.301 74.394,255.219 71.51,254.051 68.67,252.801 65.875,251.469 63.127,250.056 60.427,248.565 57.777,246.997 
		55.178,245.354 52.631,243.636 50.14,241.846 47.704,239.985 45.325,238.055 43.005,236.056 40.746,233.99 38.548,231.86 
		36.414,229.667 34.344,227.411 32.341,225.096 30.406,222.721 28.541,220.288 26.177,217.012 44.397,203.861 46.387,206.643 
		47.848,208.563 49.364,210.438 50.934,212.265 52.556,214.046 54.23,215.777 55.954,217.459 57.728,219.089 59.548,220.668 
		61.416,222.191 63.329,223.661 65.286,225.074 67.286,226.431 69.328,227.729 71.41,228.967 73.532,230.145 75.692,231.26 
		77.889,232.312 80.121,233.299 82.388,234.221 84.688,235.076 87.021,235.862 89.384,236.58 91.778,237.228 94.2,237.803 
		96.649,238.306 99.124,238.735 101.625,239.088 104.149,239.365 106.696,239.564 109.265,239.685 111.854,239.726 114.475,239.685 
		117.076,239.561 119.654,239.356 122.209,239.072 124.74,238.71 127.244,238.271 129.723,237.755 132.172,237.165 134.594,236.502 
		136.982,235.767 139.34,234.961 141.666,234.085 143.955,233.141 146.211,232.13 148.428,231.053 150.607,229.91 152.748,228.706 
		154.848,227.438 156.906,226.11 158.92,224.723 160.891,223.276 162.814,221.772 164.693,220.214 166.523,218.6 168.303,216.933 
		170.033,215.213 171.711,213.442 173.336,211.623 174.906,209.754 176.42,207.839 177.879,205.877 179.914,202.961 	"/>
	
		<path fill-rule="evenodd" clip-rule="evenodd" fill="#FFFFFF" stroke="#2E3192" stroke-width="0.216" stroke-miterlimit="2.6131" d="
		M180.096,204.424l15.58,13.487c-18.631,26.197-49.234,43.29-83.822,43.29c-34.885,0-65.717-17.388-84.3-43.967l16.617-11.993
		c14.858,21.433,39.634,35.471,67.683,35.471C140.256,240.712,165.305,226.315,180.096,204.424L180.096,204.424z"/>
	<path fill-rule="evenodd" clip-rule="evenodd" fill="#464443" d="M99.679,73.725l3.165-10.172l2.9-0.203l5.672,11.722l-3.252,0.228
		l-1.172-2.512l-4.057,0.284l-0.756,2.647l-2.008,0.14l0.011,0.048l-2.781,0.642l-5.414-5.467l1.473,6.377l-2.765,0.638
		l-2.719-11.779l2.712-0.626l5.521,5.616l-1.511-6.542l2.765-0.638L99.679,73.725L99.679,73.725z M140.994,77.376l6.928-7.617
		l2.713,1.042l0.158,10.894l4.76-8.585l2.623,1.454l-4.545,8.201l5,2.771l-1.271,2.292l-7.623-4.226l0.09-0.162l-2.047-0.787
		l-0.002-2.772l-3.797-1.458l-1.803,2.08l-2.984-1.146l0.072-0.08l-1.619-0.434l-2.213-7.369l-1.695,6.322l-2.74-0.734l3.129-11.677
		l2.689,0.72l2.236,7.551l1.738-6.485l2.74,0.734L140.994,77.376L140.994,77.376z M34.556,129.698L23.6,124.59l1.707-3.661
		l0.11-0.233l0.106-0.223l0.103-0.212l0.099-0.202l0.096-0.191l0.092-0.181l0.089-0.169l0.085-0.159l0.083-0.149l0.079-0.139
		l0.077-0.128l0.073-0.118l0.07-0.108l0.068-0.099l0.066-0.089l0.063-0.08l0.092-0.105l0.095-0.102l0.1-0.097l0.103-0.093
		l0.107-0.088l0.11-0.083l0.114-0.078l0.117-0.074l0.122-0.069l0.125-0.064l0.127-0.059l0.13-0.054l0.135-0.049l0.137-0.044
		l0.14-0.04l0.145-0.035l0.148-0.029l0.151-0.022l0.152-0.015l0.153-0.008l0.155-0.001l0.155,0.006l0.156,0.013l0.157,0.02
		l0.158,0.027l0.159,0.033l0.16,0.041l0.16,0.047l0.161,0.053l0.162,0.06l0.162,0.066l0.162,0.073l0.125,0.061l0.121,0.062
		l0.117,0.064l0.114,0.065l0.111,0.068l0.107,0.07l0.104,0.071l0.1,0.074l0.097,0.076l0.093,0.078l0.09,0.08l0.085,0.082
		l0.083,0.084l0.078,0.086l0.075,0.089l0.07,0.091l0.126,0.177l0.115,0.18l0.103,0.184l0.091,0.186l0.079,0.19l0.066,0.192
		l0.054,0.195l0.04,0.196l0.029,0.191l0.02,0.187l0.012,0.184l0.002,0.182l-0.006,0.18l-0.015,0.177l-0.025,0.175l-0.034,0.171
		l-0.03,0.118l-0.032,0.115l-0.036,0.12l-0.04,0.124l-0.042,0.128l-0.046,0.132l-0.05,0.137l-0.053,0.141l-0.057,0.146l-0.061,0.15
		l-0.063,0.154l-0.068,0.159l-0.071,0.164l-0.075,0.167l-0.078,0.172l-0.082,0.176l-0.485,1.042l3.893,1.815L34.556,129.698
		L34.556,129.698z M27.249,122.982l2.292,1.069l0.383-0.821l0.069-0.149l0.064-0.143l0.06-0.136l0.056-0.13l0.051-0.124l0.047-0.118
		l0.042-0.111l0.038-0.105l0.034-0.099l0.029-0.091l0.025-0.084l0.021-0.078l0.016-0.069l0.012-0.062l0.007-0.053l0.004-0.044
		l0.003-0.099l-0.004-0.093l-0.01-0.089l-0.017-0.086l-0.022-0.083l-0.029-0.081l-0.036-0.079l-0.042-0.077l-0.047-0.073
		l-0.053-0.069l-0.059-0.064l-0.063-0.061l-0.069-0.056l-0.076-0.053l-0.083-0.049l-0.089-0.045l-0.116-0.049l-0.111-0.037
		l-0.107-0.025l-0.104-0.015l-0.101-0.005l-0.099,0.005l-0.099,0.015l-0.1,0.025l-0.098,0.034l-0.094,0.042l-0.089,0.05
		l-0.084,0.057l-0.08,0.064l-0.076,0.072l-0.072,0.082l-0.072,0.093l-0.024,0.036l-0.029,0.045l-0.032,0.052l-0.035,0.059
		l-0.038,0.066l-0.041,0.073l-0.043,0.08l-0.045,0.085l-0.047,0.092l-0.051,0.099l-0.052,0.105l-0.055,0.111l-0.057,0.118
		l-0.06,0.124l-0.062,0.13l-0.064,0.136L27.249,122.982L27.249,122.982z M38.306,121.481l-10.469-6.044l1.5-2.6l3.881,2.241
		l1.903-3.295l-3.881-2.241l1.5-2.597l10.469,6.044l-1.5,2.597l-4.313-2.49l-1.902,3.295l4.313,2.49L38.306,121.481L38.306,121.481z
		 M43.208,112.87l-9.78-7.105l1.763-2.426l9.78,7.105L43.208,112.87L43.208,112.87z M44.956,110.418l-9.323-7.549l1.887-2.331
		l7.287,5.9l3.324-4.105l-7.178-6.24l1.968-2.263l7.522,6.539l-6.884-7.382l2.954-2.754l0.189-0.175l0.182-0.167l0.175-0.158
		l0.168-0.15l0.16-0.141l0.153-0.133l0.146-0.124l0.139-0.116l0.133-0.107l0.125-0.099l0.118-0.09l0.112-0.083l0.106-0.074
		l0.1-0.066l0.094-0.059l0.088-0.05l0.125-0.064l0.127-0.058l0.128-0.053l0.13-0.048l0.132-0.042l0.134-0.036l0.135-0.03
		l0.137-0.024l0.138-0.018l0.139-0.013l0.141-0.007l0.141-0.001l0.144,0.004l0.144,0.01l0.145,0.016l0.147,0.022l0.148,0.029
		l0.148,0.035l0.147,0.043l0.145,0.05l0.144,0.057l0.142,0.063l0.14,0.071l0.138,0.077l0.136,0.084l0.135,0.09l0.133,0.098
		l0.13,0.103l0.129,0.11l0.127,0.116l0.125,0.122l0.124,0.128l0.093,0.103l0.089,0.103l0.085,0.103l0.081,0.104l0.078,0.104
		l0.073,0.105l0.069,0.105l0.065,0.105l0.061,0.106l0.057,0.107l0.053,0.108l0.048,0.108l0.045,0.109l0.04,0.109l0.036,0.11
		l0.031,0.108l0.027,0.107l0.024,0.106l0.021,0.105l0.018,0.104l0.015,0.105l0.012,0.104l0.009,0.104l0.006,0.103l0.002,0.103
		l0,0.103l-0.003,0.102l-0.007,0.102l-0.01,0.101l-0.014,0.101l-0.017,0.1l-0.02,0.1l-0.044,0.185l-0.051,0.18l-0.059,0.175
		l-0.066,0.169l-0.073,0.164l-0.081,0.158l-0.088,0.152l-0.096,0.146l-0.071,0.098l-0.074,0.095l-0.078,0.098l-0.083,0.1
		l-0.087,0.103l-0.093,0.105l-0.097,0.108l-0.103,0.11l-0.107,0.113l-0.112,0.116l-0.117,0.12l-0.123,0.122l-0.127,0.125
		l-0.132,0.127l-0.137,0.131l-0.142,0.133l-0.84,0.784l2.93,3.141l-2.04,1.902l0.087,0.076l-1.623,1.868l0.02,0.017L44.956,110.418
		L44.956,110.418z M47.544,92.864l1.725,1.85l0.662-0.617l0.233-0.221l0.207-0.204l0.182-0.188l0.156-0.17l0.129-0.153l0.103-0.133
		l0.075-0.111l0.05-0.091l0.038-0.085l0.032-0.087l0.024-0.086l0.017-0.086l0.011-0.085l0.003-0.085l-0.003-0.087l-0.01-0.086
		l-0.017-0.085l-0.023-0.083l-0.03-0.081l-0.037-0.081l-0.043-0.078l-0.05-0.078l-0.059-0.077l-0.065-0.075l-0.089-0.088
		l-0.089-0.076l-0.09-0.063l-0.09-0.053l-0.092-0.042l-0.094-0.032l-0.097-0.023l-0.102-0.013L50.008,91.1l-0.104,0.003
		l-0.101,0.013l-0.099,0.021l-0.098,0.03l-0.098,0.039l-0.097,0.048l-0.1,0.059l-0.083,0.056l-0.104,0.077l-0.125,0.099l-0.143,0.12
		l-0.162,0.141l-0.181,0.16l-0.198,0.181l-0.217,0.2L47.544,92.864L47.544,92.864z M58.389,95.538l-7.442-9.526l3.183-2.486
		l0.204-0.158l0.196-0.15l0.188-0.143l0.18-0.135l0.173-0.126l0.164-0.118l0.156-0.111l0.149-0.104l0.141-0.095l0.133-0.087
		l0.126-0.08l0.119-0.072l0.112-0.064l0.105-0.057l0.1-0.05l0.092-0.042l0.13-0.053l0.13-0.047l0.133-0.042l0.134-0.036l0.135-0.03
		l0.136-0.024l0.137-0.018l0.138-0.013l0.139-0.006l0.14,0l0.14,0.005l0.141,0.011l0.143,0.018l0.142,0.022l0.143,0.029l0.144,0.034
		l0.146,0.042l0.145,0.049l0.143,0.055l0.14,0.063l0.138,0.069l0.136,0.076l0.133,0.083l0.131,0.088l0.129,0.096l0.126,0.102
		l0.124,0.108l0.122,0.114l0.119,0.121l0.117,0.127l0.114,0.132l0.111,0.139l0.084,0.11l0.08,0.11l0.076,0.11l0.072,0.11
		l0.068,0.111l0.064,0.111l0.06,0.111l0.056,0.111l0.051,0.112l0.048,0.111l0.043,0.112l0.039,0.112l0.035,0.112l0.03,0.112
		l0.026,0.113l0.021,0.111l0.018,0.109l0.015,0.107l0.012,0.107l0.009,0.106l0.006,0.105l0.002,0.105v0.104l-0.003,0.103
		l-0.006,0.103l-0.01,0.103l-0.013,0.102l-0.016,0.1l-0.019,0.1l-0.022,0.099l-0.025,0.098l-0.028,0.097l-0.06,0.181l-0.067,0.175
		l-0.074,0.169l-0.081,0.163l-0.087,0.157l-0.095,0.151l-0.101,0.144l-0.108,0.137l-0.08,0.091l-0.082,0.088l-0.086,0.09
		l-0.091,0.092l-0.096,0.095l-0.102,0.097l-0.106,0.099l-0.112,0.101l-0.116,0.104l-0.122,0.106l-0.127,0.108l-0.133,0.111
		l-0.137,0.113l-0.143,0.116l-0.148,0.118l-0.153,0.12l-0.905,0.708l2.645,3.385L58.389,95.538L58.389,95.538z M54.927,86.236
		l1.558,1.993l0.713-0.558l0.251-0.199l0.224-0.185l0.197-0.171l0.17-0.157l0.143-0.141l0.114-0.124l0.084-0.104l0.058-0.086
		l0.044-0.082l0.039-0.084l0.032-0.084l0.024-0.084l0.019-0.084l0.011-0.085l0.004-0.087l-0.002-0.088l-0.009-0.086l-0.016-0.085
		l-0.022-0.083l-0.029-0.083l-0.036-0.082l-0.043-0.082l-0.052-0.082l-0.059-0.081l-0.081-0.096l-0.083-0.083l-0.084-0.071
		l-0.085-0.06l-0.088-0.05l-0.091-0.041l-0.094-0.031l-0.101-0.023l-0.103-0.014l-0.103-0.005l-0.102,0.004l-0.101,0.012
		l-0.101,0.021l-0.101,0.03l-0.101,0.039l-0.104,0.05l-0.087,0.048l-0.11,0.068l-0.132,0.088l-0.153,0.106l-0.174,0.126
		l-0.194,0.144l-0.213,0.163l-0.233,0.181L54.927,86.236L54.927,86.236z M65.546,89.938l-6.406-10.251l2.543-1.589l5.637,9.02
		l-5.269-9.504l2.435-1.35l6.854,3.877l-3.255-5.872l2.481-1.376l5.861,10.573l-2.497,1.384l-6.71-3.763l3.173,5.724l-2.425,1.345
		l0.122,0.194L65.546,89.938L65.546,89.938z M76.611,83.229l-4.332-11.286l8.535-3.276l0.942,2.454l-5.736,2.202l0.654,1.703
		l5.337-2.049l0.938,2.443l-5.337,2.049l0.86,2.24l5.939-2.28l0.938,2.446L76.611,83.229L76.611,83.229z M105.812,70.245
		l-1.26-2.781l-0.839,2.928L105.812,70.245L105.812,70.245z M111.646,75.168l0.166-9.459l-3.378-0.059l0.046-2.627l9.749,0.17
		l-0.002,0.08l2.816,0.197l-0.322,4.626v-0.003l0.057-0.188l0.059-0.183l0.063-0.179l0.066-0.174l0.07-0.17l0.074-0.165l0.08-0.161
		l0.082-0.156l0.088-0.151l0.066-0.109l0.068-0.106l0.072-0.104l0.072-0.103l0.074-0.1l0.078-0.1l0.08-0.097l0.082-0.096
		l0.082-0.093l0.086-0.092l0.09-0.09l0.09-0.088l0.092-0.087l0.094-0.085l0.098-0.083l0.1-0.082l0.1-0.079l0.102-0.075l0.102-0.073
		l0.104-0.07l0.104-0.067l0.105-0.064l0.105-0.061l0.105-0.058l0.107-0.055l0.109-0.052l0.109-0.049l0.109-0.046l0.111-0.042
		l0.111-0.04l0.111-0.037l0.113-0.033l0.148-0.041l0.152-0.037l0.152-0.032l0.156-0.028l0.158-0.024l0.16-0.02l0.162-0.016
		l0.164-0.012l0.164-0.008l0.168-0.003l0.17,0l0.17,0.004l0.174,0.008l0.174,0.012l0.178,0.016l0.18,0.021l0.32,0.046l0.313,0.057
		l0.305,0.07l0.295,0.082l0.285,0.094l0.277,0.106l0.27,0.118l0.258,0.13l0.25,0.143l0.24,0.154l0.23,0.167l0.219,0.178l0.211,0.191
		l0.201,0.203l0.189,0.214l0.178,0.224l0.088,0.119l0.082,0.119l0.08,0.121l0.076,0.124l0.072,0.126l0.068,0.128l0.064,0.13
		l0.063,0.132l0.059,0.134l0.055,0.136l0.051,0.138l0.049,0.14l0.043,0.143L131.955,68l0.037,0.146l0.035,0.148l0.029,0.15
		l0.027,0.151l0.023,0.154l0.021,0.155l0.016,0.158l0.014,0.159l0.01,0.161l0.006,0.163l0.004,0.165v0.166l-0.004,0.168l-0.008,0.17
		l-0.01,0.172l-0.014,0.174l-0.018,0.175l-0.02,0.177l-0.023,0.177l-0.025,0.173l-0.029,0.171l-0.031,0.168l-0.033,0.166
		l-0.037,0.163l-0.041,0.161l-0.041,0.158l-0.047,0.156l-0.049,0.153l-0.051,0.15l-0.053,0.147L131.588,73l-0.061,0.143l-0.063,0.14
		L131.4,73.42l-0.068,0.135l-0.072,0.132l-0.074,0.129l-0.076,0.126l-0.08,0.124l-0.082,0.121l-0.086,0.118l-0.088,0.116
		l-0.092,0.113l-0.094,0.11l-0.098,0.107l-0.1,0.104l-0.104,0.101l-0.104,0.099l-0.109,0.096l-0.111,0.093l-0.113,0.089
		l-0.113,0.086l-0.117,0.083l-0.119,0.079l-0.119,0.076l-0.123,0.072l-0.123,0.068l-0.125,0.065l-0.127,0.062l-0.129,0.058
		l-0.131,0.055l-0.131,0.051l-0.135,0.047l-0.135,0.044l-0.137,0.041l-0.139,0.037l-0.139,0.034l-0.143,0.03l-0.143,0.027
		l-0.145,0.023l-0.146,0.02l-0.146,0.016l-0.15,0.013l-0.148,0.009l-0.152,0.006l-0.152,0.002l-0.156-0.001l-0.154-0.005
		l-0.158-0.008l-0.158-0.012l-0.16-0.015l-0.164-0.019l-0.322-0.046l-0.314-0.058l-0.307-0.07l-0.297-0.082l-0.289-0.093
		l-0.277-0.105l-0.27-0.118l-0.26-0.129l-0.25-0.141l-0.242-0.154l-0.23-0.166l-0.219-0.178l-0.211-0.189l-0.199-0.201l-0.189-0.213
		l-0.178-0.222l-0.088-0.118l-0.082-0.119l-0.078-0.121l-0.074-0.123l-0.072-0.125l-0.068-0.126l-0.064-0.129l-0.063-0.131
		l-0.057-0.132l-0.055-0.135l-0.051-0.137l-0.049-0.139l-0.043-0.14l-0.041-0.142l-0.037-0.145l-0.033-0.146l-0.031-0.146
		l-0.027-0.149l-0.002-0.016l-0.262,3.733l-2.99-0.209l0.664-9.504l-3.061-0.054l-0.166,9.46L111.646,75.168L111.646,75.168z
		 M123.494,69.834l-0.025,0.227l-0.016,0.219l-0.01,0.212l-0.002,0.205l0.006,0.198l0.014,0.191l0.02,0.183l0.025,0.176l0.035,0.17
		l0.039,0.163l0.049,0.155l0.053,0.148l0.061,0.142l0.068,0.136l0.072,0.129l0.082,0.124l0.086,0.119l0.092,0.113l0.096,0.105
		l0.1,0.099l0.102,0.092l0.107,0.085l0.109,0.079l0.115,0.072l0.117,0.066l0.123,0.06l0.127,0.054l0.133,0.047l0.137,0.042
		l0.143,0.035l0.146,0.029l0.152,0.022l0.154,0.016l0.148,0.008l0.146,0l0.141-0.007l0.141-0.014l0.135-0.021l0.133-0.028
		l0.131-0.035l0.127-0.042l0.125-0.05l0.123-0.056l0.121-0.064l0.117-0.072l0.117-0.079l0.115-0.087l0.111-0.094l0.105-0.1
		l0.102-0.106l0.098-0.115l0.092-0.124l0.086-0.132l0.084-0.141l0.078-0.149l0.072-0.159l0.068-0.167l0.064-0.177l0.059-0.186
		l0.053-0.195l0.049-0.204l0.041-0.213l0.039-0.222l0.031-0.232l0.025-0.229l0.018-0.222l0.01-0.215l0.002-0.207l-0.004-0.199
		l-0.012-0.191l-0.018-0.184l-0.023-0.176l-0.033-0.168l-0.037-0.161l-0.045-0.154l-0.051-0.146l-0.059-0.139l-0.063-0.132
		l-0.07-0.125l-0.076-0.118l-0.082-0.112l-0.088-0.107l-0.094-0.102l-0.096-0.094l-0.102-0.088l-0.104-0.082l-0.111-0.076
		l-0.115-0.071l-0.119-0.064l-0.125-0.059l-0.131-0.053l-0.135-0.047l-0.141-0.041l-0.148-0.036l-0.152-0.029l-0.158-0.023
		l-0.158-0.016l-0.156-0.008l-0.152-0.001l-0.146,0.006l-0.145,0.013l-0.139,0.02l-0.137,0.027l-0.133,0.034l-0.129,0.041
		l-0.125,0.048l-0.125,0.055l-0.119,0.063l-0.119,0.069l-0.115,0.077l-0.113,0.085l-0.109,0.091l-0.104,0.098l-0.1,0.105
		l-0.096,0.113l-0.09,0.122l-0.086,0.13l-0.082,0.139l-0.076,0.147l-0.072,0.157l-0.068,0.166l-0.063,0.174l-0.059,0.184
		l-0.053,0.193l-0.047,0.203l-0.043,0.211l-0.037,0.221L123.494,69.834L123.494,69.834z M147.781,77.079l0.035-3.053l-2,2.299
		L147.781,77.079L147.781,77.079z M161.512,90.647l7.441-9.526l3.184,2.487l0.201,0.16l0.193,0.153l0.184,0.148l0.176,0.142
		l0.164,0.137l0.154,0.13l0.145,0.125l0.137,0.119l0.127,0.114l0.117,0.108l0.107,0.103l0.1,0.098l0.09,0.093l0.08,0.088
		l0.072,0.084l0.063,0.08l0.084,0.113l0.076,0.116l0.072,0.119l0.068,0.121l0.061,0.124l0.057,0.126l0.051,0.128l0.047,0.131
		l0.039,0.134l0.035,0.136l0.027,0.137l0.023,0.14l0.018,0.142l0.014,0.144l0.006,0.145l0.002,0.148l-0.004,0.151l-0.014,0.152
		l-0.02,0.151l-0.025,0.151l-0.033,0.15l-0.041,0.15l-0.049,0.149l-0.055,0.148l-0.061,0.148l-0.068,0.147l-0.076,0.146
		l-0.082,0.145l-0.088,0.145l-0.094,0.144l-0.102,0.143l-0.107,0.141l-0.086,0.109l-0.088,0.104l-0.088,0.101l-0.09,0.096
		l-0.092,0.093l-0.092,0.089l-0.094,0.085l-0.094,0.081l-0.096,0.077l-0.096,0.074l-0.1,0.069L172.896,91l-0.102,0.061l-0.102,0.057
		l-0.104,0.053l-0.102,0.047l-0.102,0.043l-0.102,0.04l-0.102,0.038l-0.1,0.034l-0.102,0.032l-0.102,0.028l-0.1,0.025l-0.102,0.021
		l-0.102,0.019l-0.102,0.015l-0.102,0.013l-0.1,0.009l-0.102,0.006l-0.102,0.002l-0.102,0l-0.102-0.004l-0.189-0.015l-0.186-0.023
		l-0.182-0.03l-0.178-0.039l-0.174-0.046l-0.17-0.055l-0.164-0.063l-0.158-0.071l-0.107-0.056l-0.105-0.058l-0.109-0.062
		l-0.111-0.066l-0.115-0.07l-0.119-0.075l-0.121-0.079l-0.125-0.083l-0.129-0.088l-0.133-0.093l-0.137-0.097l-0.139-0.102
		l-0.143-0.105l-0.146-0.111l-0.152-0.115l-0.152-0.119l-0.904-0.707l-2.645,3.385L161.512,90.647L161.512,90.647z M169.699,85.038
		l-1.559,1.993l0.715,0.558l0.129,0.101l0.125,0.094l0.119,0.089l0.115,0.083l0.109,0.078l0.104,0.072l0.1,0.066l0.094,0.061
		l0.088,0.055l0.084,0.049l0.076,0.043l0.07,0.037l0.064,0.032l0.057,0.025l0.051,0.02l0.043,0.014l0.094,0.025l0.092,0.017
		l0.09,0.01l0.088,0.003l0.086-0.002l0.086-0.01l0.084-0.017l0.086-0.023l0.08-0.03l0.08-0.036l0.076-0.042l0.072-0.048l0.07-0.055
		l0.068-0.063l0.068-0.069l0.064-0.077l0.072-0.102l0.061-0.1l0.049-0.099l0.039-0.098l0.025-0.097l0.018-0.098l0.008-0.1
		l-0.002-0.103l-0.012-0.103l-0.02-0.101l-0.029-0.098l-0.035-0.095l-0.045-0.092l-0.053-0.091l-0.063-0.089l-0.074-0.089
		l-0.068-0.073l-0.092-0.09l-0.117-0.107l-0.141-0.124l-0.164-0.138l-0.188-0.153l-0.209-0.167l-0.232-0.183L169.699,85.038
		L169.699,85.038z M172.572,91.781l0.16-0.152l0.162-0.147l0.16-0.142l0.162-0.135l0.16-0.129l0.162-0.124l0.16-0.117l0.162-0.112
		l0.162-0.105l0.16-0.099l0.162-0.094l0.162-0.087l0.162-0.082l0.162-0.075l0.162-0.069l0.164-0.063l0.121-0.042l0.119-0.039
		l0.119-0.036l0.123-0.034l0.121-0.031l0.123-0.028l0.121-0.025l0.125-0.023l0.123-0.021l0.125-0.017l0.125-0.015l0.127-0.012
		l0.125-0.009l0.127-0.006l0.129-0.004l0.129-0.001l0.127,0.002l0.127,0.005l0.123,0.008l0.125,0.011l0.123,0.014l0.121,0.016
		l0.121,0.019l0.119,0.021l0.117,0.025l0.117,0.027l0.115,0.031l0.115,0.034l0.113,0.037l0.111,0.039l0.109,0.042l0.109,0.044
		l0.141,0.063l0.141,0.067l0.141,0.072l0.139,0.076l0.137,0.081l0.137,0.084l0.137,0.089l0.135,0.094l0.133,0.099l0.133,0.102
		l0.131,0.107l0.131,0.111l0.129,0.116l0.127,0.119l0.129,0.124l0.127,0.129l0.219,0.237l0.207,0.242l0.193,0.246l0.178,0.249
		l0.164,0.253l0.148,0.256l0.135,0.26l0.119,0.264l0.104,0.268l0.09,0.271l0.074,0.274l0.059,0.278l0.043,0.281l0.027,0.283
		l0.014,0.286l-0.002,0.287l-0.008,0.147l-0.01,0.145l-0.016,0.144l-0.02,0.144l-0.021,0.144l-0.027,0.143l-0.031,0.142
		l-0.035,0.142l-0.039,0.141l-0.043,0.14l-0.047,0.14l-0.051,0.139l-0.057,0.139l-0.059,0.137l-0.063,0.137l-0.066,0.136
		l-0.07,0.135l-0.074,0.135l-0.08,0.135l-0.082,0.133l-0.086,0.133l-0.09,0.132l-0.094,0.131l-0.098,0.13l-0.102,0.13l-0.104,0.129
		l-0.109,0.129l-0.111,0.127l-0.117,0.127l-0.119,0.126l-0.125,0.126l-0.127,0.125l-0.129,0.122l-0.129,0.118l-0.129,0.115
		l-0.131,0.111l-0.131,0.107l-0.131,0.104l-0.133,0.1l-0.133,0.096l-0.133,0.093l-0.133,0.088l-0.135,0.084l-0.135,0.081
		l-0.137,0.078l-0.135,0.073l-0.137,0.07l-0.137,0.065l-0.139,0.062l-0.139,0.058l-0.139,0.054l-0.139,0.05l-0.141,0.046
		l-0.141,0.042l-0.141,0.039l-0.141,0.034l-0.143,0.03l-0.143,0.026l-0.143,0.022l-0.143,0.018l-0.145,0.015l-0.145,0.01
		l-0.145,0.006l-0.146,0.002l-0.285-0.007l-0.283-0.023l-0.281-0.037l-0.277-0.053l-0.273-0.068l-0.271-0.083l-0.266-0.098
		l-0.264-0.113l-0.26-0.127l-0.254-0.143l-0.25-0.157l-0.246-0.171l-0.242-0.186l-0.236-0.2l-0.234-0.214l-0.229-0.228l-0.223-0.24
		l-0.209-0.243l-0.195-0.247l-0.178-0.25l-0.166-0.254l-0.15-0.257l-0.135-0.261l-0.121-0.264l-0.105-0.267l-0.09-0.271
		l-0.074-0.274l-0.061-0.276l-0.045-0.279l-0.027-0.283l-0.014-0.284l0.002-0.285l0.006-0.146l0.012-0.144l0.014-0.143l0.02-0.143
		l0.023-0.142l0.025-0.142l0.031-0.141l0.035-0.141l0.037-0.139l0.043-0.139l0.047-0.138l0.049-0.137l0.055-0.137l0.059-0.136
		l0.061-0.135l0.066-0.135l0.068-0.133l0.072-0.133l0.078-0.132l0.08-0.131l0.084-0.13l0.088-0.13l0.092-0.129l0.096-0.129
		l0.1-0.127l0.104-0.127l0.105-0.126l0.111-0.125l0.113-0.125l0.117-0.124l0.121-0.123L172.572,91.781L172.572,91.781z
		 M174.758,93.935l-0.16,0.161l-0.152,0.16l-0.141,0.159l-0.131,0.158l-0.119,0.157l-0.111,0.156l-0.1,0.155l-0.09,0.154
		l-0.08,0.153l-0.07,0.152l-0.063,0.151L173.49,95.8l-0.043,0.148l-0.033,0.147l-0.023,0.147l-0.016,0.147l-0.008,0.147l0.002,0.145
		l0.006,0.142l0.016,0.139l0.021,0.136l0.029,0.133l0.037,0.13l0.043,0.128l0.051,0.126l0.057,0.123l0.066,0.122l0.072,0.12
		l0.08,0.118l0.09,0.116l0.096,0.115l0.104,0.113l0.109,0.108l0.111,0.1l0.113,0.092l0.115,0.084l0.117,0.077l0.117,0.069
		l0.121,0.062l0.123,0.055l0.127,0.048l0.127,0.04l0.131,0.033l0.135,0.026l0.137,0.019l0.141,0.012l0.143,0.004l0.146-0.002
		l0.146-0.01l0.145-0.02l0.148-0.029l0.148-0.038l0.15-0.047l0.154-0.058l0.154-0.067l0.156-0.077l0.158-0.087l0.16-0.097
		l0.162-0.107l0.164-0.118l0.166-0.128l0.168-0.139l0.168-0.149l0.172-0.16l0.162-0.163l0.154-0.162l0.143-0.16l0.133-0.159
		l0.121-0.157l0.113-0.155l0.102-0.154l0.09-0.153l0.082-0.15l0.07-0.149l0.063-0.147l0.053-0.146L180,95.942l0.033-0.143
		l0.023-0.141l0.016-0.14l0.008-0.139l-0.002-0.139l-0.008-0.137l-0.016-0.134l-0.023-0.132l-0.029-0.13l-0.037-0.128l-0.045-0.127
		l-0.053-0.125l-0.061-0.124l-0.068-0.123l-0.076-0.122l-0.084-0.121l-0.092-0.12l-0.1-0.118l-0.109-0.118l-0.113-0.113
		l-0.115-0.104l-0.117-0.096l-0.119-0.088l-0.119-0.08l-0.121-0.072l-0.123-0.064l-0.125-0.057l-0.125-0.049l-0.129-0.042
		l-0.131-0.035l-0.133-0.027l-0.135-0.021l-0.139-0.013l-0.141-0.005l-0.143,0.001l-0.143,0.011l-0.145,0.019l-0.145,0.028
		l-0.146,0.037l-0.148,0.047l-0.152,0.056l-0.152,0.066l-0.154,0.076l-0.156,0.086l-0.16,0.096l-0.16,0.106l-0.162,0.117
		l-0.164,0.127l-0.166,0.138l-0.168,0.148L174.758,93.935L174.758,93.935z M176.096,104.134l9.322-7.549l1.887,2.331l-7.287,5.9
		l3.354,4.142l7.57-5.5l1.764,2.426l-9.779,7.105l-1.764-2.426l0.088-0.063L176.096,104.134L176.096,104.134z M190.926,116.767
		l0.656,2.981l-0.568,0.14l-0.24,0.051l-0.234,0.042l-0.232,0.034l-0.23,0.025l-0.225,0.016l-0.223,0.007l-0.221-0.001l-0.215-0.01
		l-0.213-0.02l-0.211-0.029l-0.205-0.038l-0.201-0.047l-0.199-0.056l-0.195-0.065l-0.189-0.075l-0.186-0.083l-0.182-0.092
		l-0.176-0.1l-0.174-0.109l-0.17-0.117l-0.164-0.125l-0.16-0.134l-0.156-0.142l-0.152-0.149l-0.148-0.158l-0.143-0.166l-0.139-0.173
		l-0.135-0.181l-0.131-0.189l-0.127-0.197l-0.123-0.205l-0.141-0.258l-0.129-0.261l-0.113-0.262l-0.1-0.263l-0.086-0.265
		l-0.072-0.266l-0.057-0.268l-0.043-0.269l-0.027-0.269l-0.014-0.27l0.002-0.271l0.016-0.271l0.031-0.271l0.045-0.271l0.061-0.271
		l0.074-0.272l0.088-0.27l0.104-0.265l0.119-0.258l0.133-0.253l0.145-0.246l0.162-0.241l0.174-0.234l0.188-0.228l0.201-0.221
		l0.217-0.215l0.229-0.208l0.24-0.202l0.256-0.196l0.27-0.189l0.281-0.183l0.293-0.176l0.16-0.091l0.158-0.086l0.156-0.082
		l0.156-0.079l0.158-0.075l0.154-0.071l0.156-0.067l0.156-0.063l0.154-0.06l0.152-0.056l0.154-0.052l0.152-0.049l0.152-0.044
		l0.152-0.041l0.152-0.037l0.15-0.033l0.15-0.029l0.15-0.025l0.148-0.021l0.15-0.018l0.148-0.013l0.146-0.009l0.148-0.005
		l0.146-0.001l0.146,0.002l0.145,0.006l0.145,0.011l0.145,0.014l0.143,0.019l0.143,0.022l0.143,0.026l0.143,0.031l0.273,0.071
		l0.27,0.085l0.262,0.098l0.256,0.112l0.246,0.125l0.24,0.138l0.232,0.152l0.227,0.165l0.215,0.178l0.209,0.191l0.201,0.204
		l0.193,0.216l0.184,0.229l0.178,0.241l0.168,0.253l0.162,0.266l0.131,0.238l0.119,0.238l0.107,0.238l0.098,0.238l0.084,0.239
		l0.072,0.239l0.061,0.239l0.049,0.239l0.035,0.24l0.023,0.239l0.012,0.239v0.239l-0.014,0.238l-0.025,0.237l-0.039,0.237
		l-0.049,0.234l-0.037,0.144l-0.043,0.144l-0.049,0.144l-0.057,0.142l-0.063,0.141l-0.068,0.141l-0.074,0.14l-0.078,0.139
		l-0.088,0.139l-0.092,0.138l-0.098,0.137l-0.104,0.137l-0.109,0.136l-0.115,0.135l-0.121,0.134l-0.379,0.399l-2.104-2.223
		l0.328-0.313l0.068-0.07l0.064-0.071l0.061-0.072l0.055-0.072l0.051-0.074l0.049-0.074l0.045-0.076l0.039-0.076l0.037-0.078
		l0.031-0.079l0.029-0.08l0.025-0.081l0.023-0.083l0.018-0.085l0.016-0.086l0.01-0.086l0.008-0.086l0.004-0.085v-0.085l-0.006-0.084
		l-0.008-0.085l-0.012-0.085l-0.016-0.085l-0.02-0.084l-0.023-0.086l-0.029-0.086l-0.031-0.086l-0.035-0.087l-0.041-0.087
		l-0.045-0.088l-0.049-0.087l-0.072-0.12l-0.076-0.113l-0.08-0.106l-0.082-0.1l-0.086-0.093l-0.09-0.086l-0.092-0.08l-0.096-0.074
		l-0.098-0.068l-0.104-0.063l-0.107-0.057l-0.109-0.051l-0.115-0.045l-0.119-0.039l-0.123-0.034l-0.127-0.028l-0.129-0.021
		l-0.131-0.012l-0.137-0.003l-0.143,0.004l-0.15,0.014l-0.154,0.022l-0.16,0.031l-0.166,0.041l-0.172,0.05l-0.178,0.06l-0.186,0.069
		l-0.188,0.079l-0.195,0.089l-0.199,0.098l-0.205,0.109l-0.211,0.118l-0.221,0.131l-0.209,0.131l-0.197,0.131l-0.186,0.13
		l-0.174,0.13l-0.162,0.129l-0.15,0.129l-0.137,0.128l-0.127,0.127l-0.113,0.126l-0.102,0.125l-0.092,0.124l-0.08,0.123
		l-0.066,0.121l-0.059,0.12l-0.047,0.121l-0.041,0.124l-0.035,0.123l-0.025,0.122l-0.02,0.121l-0.014,0.12l-0.006,0.119l0.002,0.118
		l0.008,0.118l0.016,0.118l0.021,0.117l0.029,0.118l0.035,0.118l0.043,0.119l0.051,0.119l0.059,0.119l0.064,0.118l0.105,0.169
		l0.115,0.15l0.121,0.135l0.133,0.12l0.141,0.106l0.15,0.092l0.162,0.08l0.178,0.067l0.086,0.027l0.092,0.023l0.094,0.019l0.1,0.014
		l0.102,0.011l0.105,0.006l0.111,0.001l0.113-0.003l0.117-0.007l0.121-0.012l0.125-0.017l0.129-0.022l0.133-0.027l0.135-0.032
		l0.139-0.037L190.926,116.767L190.926,116.767z M187.736,121.619l10.955-5.109l3.865,8.286l-2.383,1.111l-2.596-5.568l-1.654,0.771
		l2.416,5.181l-2.371,1.106l-2.416-5.181l-2.176,1.014l2.689,5.765l-2.375,1.107L187.736,121.619L187.736,121.619z"/>
	<path fill="#FFFFFF" d="M34.386,129.233l-10.322-4.813l1.559-3.343c0.59-1.267,1.029-2.068,1.312-2.405
		c0.43-0.52,0.998-0.86,1.703-1.017c0.705-0.157,1.468-0.043,2.288,0.338c0.634,0.296,1.114,0.66,1.437,1.091
		c0.325,0.433,0.528,0.881,0.61,1.353c0.08,0.467,0.076,0.904-0.015,1.306c-0.134,0.543-0.419,1.288-0.859,2.232l-0.633,1.358
		l3.893,1.815L34.386,129.233L34.386,129.233z M26.783,123.151l2.927,1.365l0.531-1.139c0.383-0.822,0.587-1.397,0.607-1.724
		c0.021-0.326-0.046-0.621-0.203-0.887c-0.158-0.264-0.388-0.468-0.693-0.61c-0.375-0.175-0.737-0.209-1.084-0.102
		c-0.345,0.105-0.63,0.315-0.847,0.624c-0.164,0.228-0.419,0.717-0.769,1.467L26.783,123.151L26.783,123.151z M38.178,121.003
		l-9.862-5.695l1.15-1.993l3.881,2.241l2.253-3.901l-3.881-2.241l1.149-1.991l9.863,5.694l-1.149,1.991l-4.313-2.49l-2.253,3.901
		l4.313,2.49L38.178,121.003L38.178,121.003z M43.13,112.381l-9.213-6.694l1.351-1.859l9.213,6.694L43.13,112.381L43.13,112.381z
		 M44.904,109.926l-8.779-7.108l1.447-1.787l7.287,5.9l3.598-4.443l1.492,1.208L44.904,109.926L44.904,109.926z M50.042,103.531
		l-8.595-7.472l1.508-1.735l8.595,7.472L50.042,103.531L50.042,103.531z M51.821,101.333l-7.768-8.329l2.698-2.516
		c1.022-0.953,1.729-1.532,2.117-1.738c0.593-0.321,1.247-0.424,1.959-0.305c0.712,0.119,1.378,0.509,1.995,1.171
		c0.478,0.512,0.786,1.029,0.923,1.55c0.14,0.523,0.16,1.015,0.059,1.482c-0.101,0.464-0.269,0.867-0.503,1.206
		c-0.328,0.454-0.871,1.037-1.633,1.748l-1.096,1.022l2.93,3.142L51.821,101.333L51.821,101.333z M47.049,92.847l2.203,2.361
		l0.919-0.856c0.663-0.619,1.067-1.076,1.209-1.371c0.142-0.295,0.189-0.594,0.144-0.899c-0.048-0.304-0.184-0.579-0.414-0.825
		c-0.282-0.302-0.604-0.469-0.967-0.501c-0.359-0.031-0.702,0.056-1.019,0.261c-0.238,0.149-0.658,0.508-1.263,1.072L47.049,92.847
		L47.049,92.847z M58.449,95.046l-7.011-8.974l2.906-2.271c1.101-0.86,1.856-1.376,2.26-1.547c0.619-0.268,1.28-0.313,1.979-0.133
		c0.7,0.181,1.329,0.628,1.885,1.34c0.431,0.552,0.693,1.094,0.785,1.625c0.093,0.533,0.07,1.025-0.071,1.482
		c-0.141,0.454-0.343,0.84-0.606,1.157c-0.366,0.423-0.958,0.957-1.779,1.599l-1.181,0.922l2.645,3.385L58.449,95.046L58.449,95.046
		z M54.436,86.176l1.988,2.545l0.991-0.773c0.714-0.559,1.157-0.978,1.324-1.26c0.167-0.282,0.24-0.575,0.222-0.883
		c-0.021-0.307-0.133-0.593-0.341-0.858c-0.254-0.326-0.561-0.52-0.92-0.583c-0.355-0.063-0.704-0.005-1.038,0.171
		c-0.25,0.128-0.699,0.449-1.351,0.958L54.436,86.176L54.436,86.176z M65.658,89.457l-6.035-9.658l1.95-1.218l6.035,9.658
		L65.658,89.457L65.658,89.457z M68.049,87.71l-5.521-9.961l1.957-1.084l7.764,4.391l-3.687-6.651l1.869-1.036l5.521,9.96
		l-2.02,1.12l-7.615-4.271l3.601,6.496L68.049,87.71L68.049,87.71z M76.812,82.776l-4.081-10.632l7.882-3.025l0.691,1.799
		l-5.736,2.202l0.905,2.356l5.337-2.048l0.687,1.79l-5.337,2.049l1.111,2.894l5.939-2.28l0.688,1.792L76.812,82.776L76.812,82.776z
		 M90.958,77.676l-2.562-11.097l2.181-0.503l6.252,6.361l-1.71-7.41l2.082-0.481l2.562,11.097l-2.25,0.52l-6.143-6.204l1.671,7.236
		L90.958,77.676L90.958,77.676z M110.876,74.758l-2.497,0.174l-1.172-2.512l-4.542,0.317l-0.756,2.647l-2.434,0.17l3.631-11.67
		l2.426-0.17L110.876,74.758L110.876,74.758z M106.338,70.559l-1.861-4.107l-1.239,4.323L106.338,70.559L106.338,70.559z
		 M112.002,74.824l0.166-9.459l-3.378-0.059l0.034-1.927l9.048,0.158l-0.033,1.927l-3.369-0.059l-0.166,9.459L112.002,74.824
		L112.002,74.824z M117.582,74.994l0.795-11.361l2.293,0.161l-0.795,11.361L117.582,74.994L117.582,74.994z M120.787,69.58
		c0.143-1.152,0.432-2.097,0.871-2.837c0.33-0.542,0.742-1.017,1.244-1.42c0.5-0.401,1.029-0.681,1.586-0.837
		c0.742-0.213,1.57-0.261,2.492-0.148c1.666,0.205,2.934,0.884,3.807,2.041c0.873,1.155,1.197,2.653,0.971,4.493
		c-0.225,1.827-0.896,3.192-2.016,4.102c-1.117,0.907-2.508,1.26-4.166,1.057c-1.682-0.207-2.955-0.884-3.822-2.03
		C120.889,72.852,120.566,71.377,120.787,69.58L120.787,69.58z M123.146,69.792c-0.156,1.279,0.021,2.287,0.529,3.02
		c0.512,0.733,1.221,1.155,2.131,1.267c0.908,0.111,1.697-0.123,2.361-0.709c0.662-0.584,1.074-1.53,1.236-2.84
		c0.158-1.295-0.008-2.296-0.494-3.005c-0.49-0.707-1.207-1.118-2.146-1.233c-0.941-0.116-1.74,0.115-2.395,0.689
		S123.307,68.489,123.146,69.792L123.146,69.792z M131.426,76.815l2.949-11l2.162,0.579l2.533,8.552l1.969-7.346l2.064,0.553
		l-2.947,11l-2.232-0.598l-2.51-8.362l-1.922,7.174L131.426,76.815L131.426,76.815z M150.465,83.31l-2.336-0.897l-0.002-2.772
		l-4.25-1.632l-1.803,2.08l-2.277-0.875l8.223-9.042l2.27,0.872L150.465,83.31L150.465,83.31z M148.127,77.586l0.049-4.508
		l-2.951,3.395L148.127,77.586L148.127,77.586z M150.213,83.465l5.477-9.88l2.01,1.115l-4.545,8.2l5,2.772l-0.93,1.679
		L150.213,83.465L150.213,83.465z M162.002,90.587l7.012-8.975l2.906,2.271c1.102,0.86,1.783,1.468,2.049,1.819
		c0.408,0.535,0.613,1.166,0.607,1.888c-0.006,0.722-0.287,1.441-0.844,2.153c-0.432,0.551-0.895,0.937-1.387,1.154
		c-0.494,0.219-0.979,0.316-1.455,0.29c-0.475-0.027-0.898-0.129-1.27-0.309c-0.5-0.252-1.16-0.698-1.982-1.34l-1.18-0.922
		l-2.645,3.385L162.002,90.587L162.002,90.587z M169.639,84.547l-1.988,2.545l0.99,0.774c0.715,0.558,1.229,0.886,1.543,0.98
		c0.313,0.094,0.615,0.094,0.91,0.001c0.293-0.095,0.543-0.273,0.75-0.538c0.254-0.326,0.369-0.67,0.344-1.034
		c-0.025-0.359-0.166-0.685-0.418-0.965c-0.184-0.212-0.604-0.57-1.256-1.08L169.639,84.547L169.639,84.547z M172.814,92.033
		c0.836-0.807,1.656-1.359,2.463-1.656c0.598-0.215,1.217-0.324,1.861-0.322c0.641,0.004,1.227,0.119,1.758,0.348
		c0.711,0.301,1.385,0.786,2.029,1.453c1.166,1.208,1.725,2.534,1.676,3.982c-0.049,1.447-0.74,2.814-2.072,4.103
		c-1.324,1.278-2.707,1.916-4.148,1.919c-1.439,0.001-2.742-0.599-3.902-1.801c-1.178-1.219-1.742-2.547-1.693-3.982
		C170.834,94.639,171.512,93.291,172.814,92.033L172.814,92.033z M174.516,93.683c-0.928,0.895-1.424,1.791-1.49,2.68
		c-0.063,0.892,0.223,1.666,0.861,2.325c0.635,0.658,1.395,0.971,2.279,0.934c0.883-0.037,1.799-0.512,2.748-1.43
		c0.939-0.906,1.439-1.788,1.508-2.646c0.063-0.858-0.234-1.628-0.893-2.309c-0.658-0.683-1.424-1.006-2.295-0.972
		C176.365,92.301,175.459,92.771,174.516,93.683L174.516,93.683z M176.588,104.185l8.777-7.108l1.447,1.787l-7.287,5.9l3.598,4.443
		l-1.492,1.208L176.588,104.185L176.588,104.185z M181.65,110.64l9.215-6.694l1.352,1.86l-9.215,6.694L181.65,110.64L181.65,110.64z
		 M190.664,117.208l0.504,2.282c-1.248,0.326-2.332,0.295-3.254-0.091c-0.916-0.386-1.684-1.109-2.295-2.168
		c-0.756-1.309-0.93-2.645-0.523-4.003c0.41-1.36,1.389-2.489,2.939-3.384c1.643-0.948,3.162-1.259,4.561-0.937
		c1.396,0.323,2.494,1.175,3.291,2.557c0.697,1.206,0.906,2.392,0.627,3.557c-0.16,0.693-0.572,1.378-1.232,2.059l-1.609-1.701
		c0.445-0.411,0.709-0.887,0.791-1.43c0.082-0.541-0.029-1.076-0.336-1.604c-0.42-0.73-1.025-1.174-1.814-1.325
		c-0.787-0.152-1.768,0.11-2.943,0.79c-1.246,0.72-2.006,1.456-2.275,2.211c-0.271,0.754-0.199,1.49,0.215,2.206
		c0.307,0.53,0.736,0.888,1.295,1.075C189.158,117.49,189.846,117.457,190.664,117.208L190.664,117.208z M188.201,121.788
		l10.322-4.813l3.566,7.652l-1.746,0.814l-2.598-5.568l-2.287,1.066l2.416,5.181l-1.736,0.81l-2.416-5.181l-2.811,1.31l2.689,5.765
		l-1.74,0.812L188.201,121.788L188.201,121.788z"/>
	<path fill="#2E3192" d="M45.696,220.227l-2.028-2.259l0.693-0.622c0.323-0.29,0.504-0.506,0.541-0.643
		c0.038-0.138-0.006-0.272-0.128-0.409c-0.131-0.146-0.29-0.203-0.477-0.17c-0.186,0.031-0.401,0.156-0.644,0.374
		c-0.312,0.28-0.511,0.534-0.593,0.761c-0.085,0.223-0.067,0.623,0.046,1.202c0.33,1.661,0.414,2.814,0.255,3.467
		s-0.698,1.39-1.616,2.214c-0.667,0.599-1.229,0.96-1.684,1.088c-0.456,0.128-0.993,0.064-1.607-0.189
		c-0.615-0.257-1.189-0.679-1.723-1.272c-0.584-0.651-0.959-1.319-1.125-2c-0.168-0.684-0.125-1.267,0.127-1.751
		c0.255-0.485,0.732-1.042,1.435-1.673l0.611-0.549l2.028,2.26l-1.138,1.021c-0.352,0.315-0.548,0.549-0.592,0.702
		c-0.04,0.154,0.01,0.313,0.155,0.475c0.145,0.161,0.316,0.226,0.515,0.189c0.197-0.035,0.422-0.166,0.673-0.391
		c0.55-0.494,0.844-0.894,0.879-1.195c0.031-0.307-0.028-0.94-0.174-1.9c-0.141-0.967-0.211-1.628-0.207-1.988
		c0.006-0.358,0.11-0.747,0.314-1.162c0.203-0.418,0.554-0.848,1.051-1.294c0.716-0.643,1.323-1.023,1.819-1.138
		c0.494-0.115,1.019-0.052,1.572,0.188c0.552,0.242,1.09,0.65,1.609,1.229c0.569,0.633,0.95,1.264,1.145,1.891
		c0.195,0.63,0.203,1.154,0.021,1.58c-0.18,0.422-0.643,0.966-1.387,1.634L45.696,220.227L45.696,220.227z M49.646,218.829
		l3.983,3.727l-1.719,1.837l-1.594-1.49l-1.628,1.741l1.491,1.395l-1.635,1.749l-1.492-1.395l-1.889,2.02l1.752,1.639l-1.719,1.839
		l-4.143-3.875L49.646,218.829L49.646,218.829z M54.691,223.594l1.822,1.428c1.215,0.951,2.001,1.642,2.357,2.072
		c0.356,0.432,0.519,0.946,0.489,1.543c-0.031,0.599-0.376,1.318-1.039,2.163c-0.604,0.771-1.105,1.213-1.505,1.327
		c-0.398,0.116-0.9-0.021-1.504-0.41c0.41,0.526,0.622,0.965,0.63,1.315c0.008,0.347-0.033,0.628-0.13,0.838
		c-0.096,0.211-0.458,0.716-1.084,1.516l-2.046,2.611l-2.39-1.873l2.578-3.289c0.416-0.53,0.628-0.893,0.645-1.085
		c0.015-0.19-0.153-0.427-0.506-0.704l-3.499,4.465l-2.575-2.019L54.691,223.594L54.691,223.594z M55.94,227.304l-1.725,2.202
		c0.288,0.226,0.521,0.345,0.701,0.357c0.179,0.012,0.44-0.201,0.782-0.638l0.425-0.542c0.247-0.315,0.351-0.564,0.315-0.75
		C56.402,227.747,56.237,227.536,55.94,227.304L55.94,227.304z M68.489,233.677l-8.589,9.336l-4.062-2.854l5.684-11.376l2.823,1.982
		c-1.665,3.063-3.117,5.624-4.351,7.68c1.529-1.882,2.911-3.535,4.144-4.967l1.529-1.784L68.489,233.677L68.489,233.677z
		 M71.953,235.127l-5.92,11.096l-2.887-1.54l5.92-11.097L71.953,235.127L71.953,235.127z M78.331,244.087l-2.985-1.334l0.894-2
		c0.26-0.581,0.388-0.959,0.39-1.132c0.001-0.171-0.107-0.307-0.325-0.404c-0.247-0.11-0.44-0.092-0.586,0.052
		c-0.145,0.147-0.347,0.51-0.607,1.091l-2.384,5.333c-0.25,0.56-0.378,0.938-0.389,1.137c-0.009,0.202,0.101,0.353,0.333,0.456
		c0.223,0.1,0.406,0.08,0.551-0.062c0.144-0.14,0.358-0.522,0.64-1.151l0.643-1.438l2.985,1.334l-0.199,0.446
		c-0.53,1.186-0.991,1.99-1.38,2.412c-0.389,0.421-0.956,0.69-1.697,0.807c-0.74,0.116-1.534-0.012-2.374-0.387
		c-0.876-0.393-1.526-0.874-1.951-1.444c-0.424-0.571-0.606-1.178-0.541-1.819c0.067-0.644,0.352-1.527,0.855-2.653l1.499-3.353
		c0.37-0.828,0.676-1.435,0.917-1.823c0.243-0.389,0.589-0.713,1.043-0.969c0.452-0.257,0.977-0.386,1.574-0.383
		c0.596,0.005,1.219,0.15,1.866,0.439c0.881,0.394,1.53,0.89,1.95,1.484c0.419,0.597,0.604,1.188,0.559,1.777
		c-0.048,0.588-0.312,1.42-0.791,2.492L78.331,244.087L78.331,244.087z M82.143,239.588l5.123,1.873l-0.864,2.363l-2.05-0.749
		l-0.818,2.239l1.917,0.7l-0.822,2.249l-1.917-0.701l-0.95,2.598l2.254,0.824l-0.864,2.363l-5.327-1.947L82.143,239.588
		L82.143,239.588z M99.514,244.151l-2.633,12.298l-3.197-0.685l1.106-5.165l-0.957-0.205l-1.106,5.165l-3.199-0.685l2.632-12.298
		l3.2,0.685l-0.941,4.397l0.957,0.205l0.941-4.397L99.514,244.151L99.514,244.151z M107.724,252.2
		c-0.134,1.258-0.258,2.143-0.372,2.659c-0.116,0.518-0.352,0.976-0.709,1.375c-0.357,0.399-0.814,0.687-1.37,0.861
		c-0.554,0.176-1.186,0.226-1.89,0.15c-0.67-0.071-1.259-0.245-1.769-0.521c-0.512-0.275-0.904-0.648-1.182-1.12
		c-0.277-0.473-0.419-0.971-0.428-1.491c-0.005-0.523,0.059-1.429,0.196-2.715l0.228-2.139c0.134-1.258,0.258-2.144,0.374-2.661
		c0.114-0.516,0.349-0.974,0.709-1.372c0.357-0.399,0.812-0.688,1.369-0.862c0.555-0.176,1.184-0.226,1.891-0.15
		c0.67,0.071,1.259,0.246,1.769,0.521c0.509,0.275,0.904,0.648,1.182,1.121c0.278,0.472,0.419,0.97,0.425,1.49
		c0.008,0.523-0.059,1.426-0.196,2.715L107.724,252.2L107.724,252.2z M104.911,247.746c0.063-0.583,0.07-0.959,0.022-1.129
		c-0.046-0.168-0.169-0.264-0.37-0.284c-0.172-0.019-0.308,0.033-0.412,0.155c-0.106,0.12-0.192,0.503-0.261,1.148l-0.623,5.838
		c-0.077,0.728-0.093,1.179-0.053,1.354c0.04,0.178,0.17,0.277,0.386,0.301c0.222,0.023,0.372-0.06,0.456-0.248
		c0.082-0.19,0.163-0.651,0.242-1.39L104.911,247.746L104.911,247.746z M116.764,244.804l0.201,12.575l-2.865,0.045l-1.794-5.688
		l0.091,5.717l-2.733,0.043l-0.201-12.575l2.733-0.043l1.925,5.634l-0.09-5.663L116.764,244.804L116.764,244.804z M126.58,251.195
		c0.131,1.258,0.193,2.149,0.189,2.678c-0.006,0.531-0.141,1.028-0.408,1.493c-0.266,0.465-0.652,0.841-1.16,1.127
		c-0.506,0.288-1.113,0.468-1.816,0.541c-0.67,0.069-1.283,0.021-1.84-0.143s-1.018-0.446-1.389-0.851
		c-0.369-0.404-0.611-0.861-0.729-1.369c-0.113-0.511-0.238-1.41-0.373-2.697l-0.221-2.139c-0.131-1.258-0.193-2.149-0.188-2.681
		c0.004-0.528,0.139-1.025,0.408-1.49c0.268-0.465,0.652-0.841,1.16-1.128c0.506-0.286,1.111-0.467,1.818-0.54
		c0.67-0.069,1.283-0.021,1.838,0.143c0.555,0.164,1.02,0.446,1.389,0.851c0.371,0.404,0.611,0.861,0.727,1.369
		c0.117,0.511,0.238,1.407,0.373,2.696L126.58,251.195L126.58,251.195z M122.902,247.423c-0.061-0.583-0.131-0.951-0.213-1.107
		c-0.08-0.154-0.221-0.223-0.422-0.202c-0.17,0.018-0.293,0.098-0.369,0.238c-0.078,0.139-0.084,0.531-0.016,1.178l0.604,5.839
		c0.076,0.729,0.154,1.173,0.23,1.336c0.074,0.165,0.223,0.235,0.439,0.213c0.223-0.023,0.352-0.135,0.395-0.337
		c0.041-0.204,0.023-0.671-0.053-1.41L122.902,247.423L122.902,247.423z M126.979,243.732l2.256-0.518
		c1.504-0.345,2.535-0.521,3.094-0.527c0.561-0.006,1.063,0.192,1.508,0.59c0.445,0.401,0.787,1.123,1.027,2.17
		c0.219,0.953,0.246,1.621,0.084,2.005c-0.16,0.382-0.582,0.686-1.266,0.91c0.666,0.013,1.141,0.124,1.418,0.338
		c0.275,0.212,0.467,0.421,0.57,0.629c0.104,0.207,0.268,0.806,0.496,1.796l0.74,3.233l-2.959,0.679l-0.934-4.073
		c-0.15-0.656-0.299-1.05-0.438-1.184c-0.139-0.132-0.43-0.149-0.865-0.05l1.268,5.528l-3.189,0.731L126.979,243.732
		L126.979,243.732z M130.648,245.097l0.625,2.727c0.355-0.082,0.596-0.188,0.717-0.319c0.123-0.132,0.123-0.469-0.002-1.009
		l-0.154-0.672c-0.09-0.391-0.217-0.628-0.385-0.717C131.281,245.017,131.016,245.013,130.648,245.097L130.648,245.097z
		 M143.012,239.327l2.863,7.903c0.428,1.182,0.691,1.948,0.789,2.294c0.098,0.349,0.1,0.694,0,1.038
		c-0.098,0.343-0.299,0.63-0.598,0.856c-0.301,0.228-0.793,0.465-1.473,0.712l-1.541,0.558l-0.748-2.066
		c0.189-0.052,0.326-0.093,0.408-0.123c0.221-0.079,0.373-0.196,0.461-0.35s0.113-0.309,0.076-0.474
		c-0.035-0.162-0.139-0.469-0.301-0.914l-3.014-8.319L143.012,239.327L143.012,239.327z M151.447,235.852l3.408,7.684
		c0.385,0.871,0.629,1.497,0.729,1.873c0.1,0.38,0.092,0.815-0.023,1.31c-0.115,0.498-0.355,0.941-0.729,1.336
		c-0.371,0.394-0.869,0.73-1.486,1.005c-0.689,0.305-1.346,0.46-1.971,0.464c-0.627,0.005-1.15-0.116-1.574-0.363
		c-0.42-0.251-0.746-0.565-0.971-0.95c-0.229-0.383-0.627-1.224-1.203-2.523l-3.018-6.802l2.988-1.325l3.824,8.62
		c0.221,0.501,0.391,0.812,0.508,0.925c0.115,0.117,0.256,0.14,0.424,0.065c0.189-0.084,0.275-0.215,0.264-0.393
		c-0.016-0.179-0.15-0.555-0.404-1.127l-3.756-8.472L151.447,235.852L151.447,235.852z M160.576,235.121l-2.631,1.515l-0.465-0.807
		c-0.217-0.377-0.391-0.599-0.516-0.663c-0.127-0.065-0.268-0.051-0.426,0.04c-0.17,0.098-0.26,0.241-0.266,0.432
		c-0.01,0.188,0.068,0.425,0.232,0.707c0.209,0.363,0.416,0.611,0.619,0.738c0.201,0.13,0.596,0.195,1.186,0.205
		c1.693,0.023,2.84,0.181,3.445,0.472s1.213,0.972,1.828,2.04c0.447,0.777,0.684,1.402,0.715,1.875
		c0.029,0.472-0.143,0.984-0.52,1.531c-0.379,0.549-0.912,1.022-1.604,1.421c-0.758,0.437-1.488,0.665-2.189,0.686
		c-0.703,0.022-1.266-0.141-1.686-0.489c-0.424-0.351-0.867-0.933-1.338-1.751l-0.41-0.713l2.631-1.514l0.764,1.326
		c0.234,0.409,0.422,0.649,0.564,0.725c0.141,0.071,0.307,0.056,0.494-0.053c0.189-0.108,0.287-0.263,0.293-0.465
		c0.008-0.2-0.074-0.447-0.242-0.739c-0.369-0.641-0.697-1.012-0.986-1.108c-0.293-0.095-0.926-0.168-1.895-0.226
		c-0.975-0.063-1.637-0.132-1.988-0.211c-0.35-0.081-0.707-0.263-1.072-0.55c-0.365-0.284-0.713-0.718-1.045-1.297
		c-0.48-0.835-0.727-1.507-0.734-2.016c-0.012-0.508,0.16-1.008,0.51-1.499c0.352-0.49,0.863-0.931,1.537-1.318
		c0.736-0.425,1.434-0.666,2.086-0.727c0.658-0.061,1.172,0.041,1.551,0.307c0.375,0.264,0.811,0.83,1.311,1.696L160.576,235.121
		L160.576,235.121z M165.57,227.117l1.439,2.063l-1.59,1.111l5.758,8.249l-2.682,1.871l-5.758-8.249l-1.588,1.107l-1.439-2.063
		L165.57,227.117L165.57,227.117z M169.068,224.364l7.9,9.785l-2.547,2.056l-7.9-9.785L169.068,224.364L169.068,224.364z
		 M179.752,222.028l-2.355,2.268l-1.518-1.578c-0.443-0.458-0.744-0.719-0.904-0.786c-0.158-0.064-0.324-0.016-0.496,0.15
		c-0.195,0.188-0.252,0.374-0.172,0.563c0.082,0.188,0.342,0.512,0.783,0.971l4.053,4.208c0.424,0.441,0.727,0.702,0.906,0.786
		c0.186,0.084,0.365,0.038,0.549-0.138c0.176-0.17,0.227-0.347,0.148-0.533c-0.074-0.186-0.35-0.528-0.828-1.025l-1.092-1.134
		l2.355-2.268l0.338,0.351c0.9,0.937,1.475,1.665,1.721,2.184c0.244,0.519,0.281,1.146,0.111,1.876
		c-0.17,0.729-0.586,1.418-1.248,2.056c-0.691,0.666-1.383,1.088-2.07,1.269c-0.688,0.18-1.318,0.121-1.889-0.181
		c-0.572-0.303-1.285-0.898-2.139-1.786l-2.549-2.646c-0.629-0.653-1.076-1.164-1.346-1.533c-0.27-0.371-0.441-0.813-0.508-1.33
		c-0.07-0.516,0.008-1.05,0.234-1.603c0.227-0.551,0.596-1.074,1.105-1.565c0.695-0.67,1.398-1.086,2.107-1.253
		c0.711-0.164,1.328-0.115,1.857,0.148c0.527,0.265,1.199,0.821,2.014,1.668L179.752,222.028L179.752,222.028z M176.971,216.789
		l3.656-4.048l1.867,1.687l-1.463,1.62l1.77,1.598l1.367-1.516l1.777,1.604l-1.367,1.516l2.053,1.854l1.607-1.781l1.867,1.687
		l-3.801,4.21L176.971,216.789L176.971,216.789z"/>
</g>
</svg>
